<?xml version="1.0" encoding="UTF-8" standalone="no"?>
<!-- Created with Inkscape (http://www.inkscape.org/) -->

<svg
   xmlns:dc="http://purl.org/dc/elements/1.1/"
   xmlns:cc="http://creativecommons.org/ns#"
   xmlns:rdf="http://www.w3.org/1999/02/22-rdf-syntax-ns#"
   xmlns:svg="http://www.w3.org/2000/svg"
   xmlns="http://www.w3.org/2000/svg"
   xmlns:sodipodi="http://sodipodi.sourceforge.net/DTD/sodipodi-0.dtd"
   xmlns:inkscape="http://www.inkscape.org/namespaces/inkscape"
   width="91.318993mm"
   height="52.893021mm"
   viewBox="0 0 91.318993 52.893021"
   version="1.1"
   id="svg2500"
   inkscape:version="0.92.2 5c3e80d, 2017-08-06"
   sodipodi:docname="art1.svg">
  <defs
     id="defs2494" />
  <sodipodi:namedview
     id="base"
     pagecolor="#ffffff"
     bordercolor="#666666"
     borderopacity="1.0"
     inkscape:pageopacity="0.0"
     inkscape:pageshadow="2"
     inkscape:zoom="0.35"
     inkscape:cx="1012.5713"
     inkscape:cy="-294.3304"
     inkscape:document-units="mm"
     inkscape:current-layer="layer1"
     showgrid="false"
     fit-margin-top="5"
     fit-margin-left="5"
     fit-margin-right="5"
     fit-margin-bottom="5"
     inkscape:window-width="1770"
     inkscape:window-height="1061"
     inkscape:window-x="150"
     inkscape:window-y="0"
     inkscape:window-maximized="1" />
  <metadata
     id="metadata2497">
    <rdf:RDF>
      <cc:Work
         rdf:about="">
        <dc:format>image/svg+xml</dc:format>
        <dc:type
           rdf:resource="http://purl.org/dc/dcmitype/StillImage" />
        <dc:title></dc:title>
      </cc:Work>
    </rdf:RDF>
  </metadata>
  <g
     inkscape:label="Layer 1"
     inkscape:groupmode="layer"
     id="layer1"
     transform="translate(316.29045,-18.065394)">
    <path
       sodipodi:nodetypes="ssssassssassssazasas"
       inkscape:connector-curvature="0"
       id="path837"
       d="m -260.185,25.015113 c 0.1682,1.41692 -0.21827,7.62797 0.28064,11.68156 0.12928,1.0504 1.78285,1.24536 1.77183,0.18709 -0.0305,-2.93171 -0.49358,-4.36807 -0.35813,-7.27994 0.0916,-1.96996 4.31379,-4.53925 7.06901,-4.32963 2.69534,0.20506 6.19494,3.02284 6.19501,5.23298 8e-5,2.73086 0.14634,4.18542 -0.17104,6.22161 -0.19446,1.24769 1.63393,1.86935 1.6462,0.60666 0.0306,-3.15328 0.1066,-5.21225 -0.0935,-8.33828 -0.11617,-1.81446 3.53733,-4.24554 5.96252,-4.17464 2.46729,0.0721 5.87891,2.80984 5.80754,4.59422 -0.12935,3.23394 -0.28812,5.33257 -0.12564,7.29598 0.0659,0.79591 2.1548,0.78162 2.19416,-0.016 0.15993,-3.24103 -0.26058,-5.97282 -0.62271,-9.92578 -0.2591,-2.828241 -4.83417,-3.617311 -7.67292,-3.704171 -2.23031,-0.0682 -4.84128,2.41732 -6.19501,2.53624 -1.35373,0.11892 -5.01758,-2.13181 -7.65687,-2.03642 -1.85903,0.0672 -4.62908,2.5143 -5.27562,1.81998 -0.38861,-0.41732 -0.0461,-0.91455 -0.39023,-1.08767 -0.73586,-0.37023 -2.5249,-0.62918 -2.3652,0.71621 z"
       style="color:#000000;clip-rule:nonzero;display:inline;overflow:visible;visibility:visible;opacity:1;isolation:auto;mix-blend-mode:normal;color-interpolation:sRGB;color-interpolation-filters:linearRGB;solid-color:#000000;solid-opacity:1;fill:#441279;fill-opacity:1;fill-rule:evenodd;stroke:none;stroke-width:1.05833328;stroke-linecap:butt;stroke-linejoin:miter;stroke-miterlimit:4;stroke-dasharray:none;stroke-dashoffset:0;stroke-opacity:1;color-rendering:auto;image-rendering:auto;shape-rendering:auto;text-rendering:auto;enable-background:accumulate" />
    <path
       sodipodi:nodetypes="aaaaasssss"
       inkscape:connector-curvature="0"
       id="path841"
       d="m -253.92988,29.159893 c -1.61827,0.21307 -3.57599,1.79302 -3.50103,3.42354 0.0835,1.81626 2.42669,3.644 4.23334,3.43958 1.88371,-0.21314 3.87325,-2.62303 3.50102,-4.48187 -0.31789,-1.58752 -2.62815,-2.59259 -4.23333,-2.38125 z m 0.23698,0.55852 c 1.35791,0.002 3.21433,0.75271 3.36301,2.10245 0.24673,2.23991 -1.82572,3.13364 -3.72737,3.363 -1.02818,0.12401 -2.44622,-1.49521 -2.55055,-2.9149 -0.10004,-1.36125 1.3011,-2.55288 2.91491,-2.55055 z"
       style="color:#000000;clip-rule:nonzero;display:inline;overflow:visible;visibility:visible;opacity:1;isolation:auto;mix-blend-mode:normal;color-interpolation:sRGB;color-interpolation-filters:linearRGB;solid-color:#000000;solid-opacity:1;fill:#000000;fill-opacity:1;fill-rule:evenodd;stroke:none;stroke-width:1.05833328;stroke-linecap:butt;stroke-linejoin:miter;stroke-miterlimit:4;stroke-dasharray:none;stroke-dashoffset:0;stroke-opacity:1;color-rendering:auto;image-rendering:auto;shape-rendering:auto;text-rendering:auto;enable-background:accumulate" />
    <path
       sodipodi:nodetypes="aaaaa"
       inkscape:connector-curvature="0"
       id="path843"
       d="m -254.20565,30.370183 c -0.76226,0.0696 -1.51159,1.00113 -1.4685,1.76535 0.046,0.8158 0.95474,1.7579 1.76951,1.69635 0.8205,-0.062 1.59557,-1.13874 1.50509,-1.95659 -0.0862,-0.77893 -1.02567,-1.5764 -1.8061,-1.50511 z"
       style="color:#000000;clip-rule:nonzero;display:inline;overflow:visible;visibility:visible;opacity:1;isolation:auto;mix-blend-mode:normal;color-interpolation:sRGB;color-interpolation-filters:linearRGB;solid-color:#000000;solid-opacity:1;fill:#000000;fill-opacity:1;fill-rule:evenodd;stroke:none;stroke-width:1.30548656;stroke-linecap:butt;stroke-linejoin:miter;stroke-miterlimit:4;stroke-dasharray:none;stroke-dashoffset:0;stroke-opacity:1;color-rendering:auto;image-rendering:auto;shape-rendering:auto;text-rendering:auto;enable-background:accumulate" />
    <path
       sodipodi:nodetypes="aaaaaaaaaa"
       inkscape:connector-curvature="0"
       id="path845"
       d="m -239.00232,28.615623 c -1.72462,-0.0196 -3.91826,1.64262 -3.92854,3.36733 -0.0101,1.70133 2.13421,3.38978 3.83543,3.36768 1.69882,-0.0221 3.75427,-1.76237 3.74137,-3.46129 -0.0124,-1.63387 -2.01445,-3.25516 -3.64826,-3.27372 z m 0.12675,0.54862 c 1.30582,0.0708 2.82097,1.46808 2.77333,2.77495 -0.0512,1.40424 -1.784,2.7646 -3.18915,2.75679 -1.3696,-0.008 -3.11029,-1.35219 -3.07839,-2.72143 0.0348,-1.49431 2.0017,-2.89125 3.49421,-2.81031 z"
       style="color:#000000;clip-rule:nonzero;display:inline;overflow:visible;visibility:visible;opacity:1;isolation:auto;mix-blend-mode:normal;color-interpolation:sRGB;color-interpolation-filters:linearRGB;solid-color:#000000;solid-opacity:1;fill:#000000;fill-opacity:1;fill-rule:evenodd;stroke:none;stroke-width:1.05833328;stroke-linecap:butt;stroke-linejoin:miter;stroke-miterlimit:4;stroke-dasharray:none;stroke-dashoffset:0;stroke-opacity:1;color-rendering:auto;image-rendering:auto;shape-rendering:auto;text-rendering:auto;enable-background:accumulate" />
    <path
       sodipodi:nodetypes="caaac"
       inkscape:connector-curvature="0"
       id="path847"
       d="m -239.40192,29.932873 c -0.81701,-0.0927 -1.93692,0.70896 -2.05286,1.5607 -0.10774,0.79109 0.65792,1.80514 1.44985,1.90652 0.88742,0.1136 2.01667,-0.7685 2.11047,-1.65824 0.0823,-0.7806 -0.69047,-1.71627 -1.50746,-1.80898 z"
       style="color:#000000;clip-rule:nonzero;display:inline;overflow:visible;visibility:visible;opacity:1;isolation:auto;mix-blend-mode:normal;color-interpolation:sRGB;color-interpolation-filters:linearRGB;solid-color:#000000;solid-opacity:1;fill:#000000;fill-opacity:1;fill-rule:evenodd;stroke:none;stroke-width:1.34779859;stroke-linecap:butt;stroke-linejoin:miter;stroke-miterlimit:4;stroke-dasharray:none;stroke-dashoffset:0;stroke-opacity:1;color-rendering:auto;image-rendering:auto;shape-rendering:auto;text-rendering:auto;enable-background:accumulate" />
    <path
       sodipodi:nodetypes="czzscsccccccccczcc"
       inkscape:connector-curvature="0"
       id="path849"
       d="m -248.91782,45.266323 c -0.76932,0.41963 1.60639,3.35092 3.46114,3.36759 1.85475,0.0167 -3.68337,8.661649 -4.93514,8.647571 -1.25177,-0.0141 -6.62642,1.072369 -8.67775,2.820479 -0.89929,0.76636 0.14834,0.587711 -0.95732,1.01486 1.39253,-0.428631 -0.16882,0.0514 1.09989,-0.44399 2.45277,-0.95781 5.55011,-2.28225 8.25454,-2.26881 -1.98212,1.047002 -4.02444,2.063891 -5.03889,3.59473 l -0.38668,0.988949 1.12803,-0.741209 c 1.48605,-1.64148 3.33549,-2.556179 5.0459,-3.748921 l -0.39551,2.796321 0.43426,2.148231 0.32684,-2.25067 0.38277,-3.535781 c 0,0 6.95757,-8.89653 4.93514,-9.58302 -2.02243,-0.6865 -3.77849,-2.27127 -4.20949,-2.99342 z"
       style="color:#000000;clip-rule:nonzero;display:inline;overflow:visible;visibility:visible;opacity:1;isolation:auto;mix-blend-mode:normal;color-interpolation:sRGB;color-interpolation-filters:linearRGB;solid-color:#000000;solid-opacity:1;fill:#de924f;fill-opacity:1;fill-rule:evenodd;stroke:none;stroke-width:1.05833328;stroke-linecap:butt;stroke-linejoin:miter;stroke-miterlimit:4;stroke-dasharray:none;stroke-dashoffset:0;stroke-opacity:1;color-rendering:auto;image-rendering:auto;shape-rendering:auto;text-rendering:auto;enable-background:accumulate" />
    <path
       sodipodi:nodetypes="czzcccccccccccczcc"
       inkscape:connector-curvature="0"
       id="path851"
       d="m -236.94414,45.266313 c -0.91873,0.45936 2.25093,4.04891 3.64823,4.2095 1.3973,0.160591 -2.88645,9.274981 -4.30304,9.915691 -1.41659,0.64071 -3.92298,0.862298 -6.12085,2.739369 l -0.70789,1.563671 1.08379,-0.843049 c 1.55187,-1.481572 3.73425,-2.122472 6.02558,-2.618092 -1.93062,1.17779 -2.91564,1.530771 -3.352,3.70473 l 0.10064,1.09148 0.51213,-0.90143 c 0.37032,-1.946449 1.73489,-2.14581 3.3005,-3.614139 l 0.27631,2.697048 0.93976,2.747323 -0.10527,-2.898791 -0.73662,-3.481031 c 0,0 5.70829,-10.24271 4.30303,-10.5705 -1.40526,-0.32779 -3.90692,-2.50428 -4.11595,-3.74178 z"
       style="color:#000000;clip-rule:nonzero;display:inline;overflow:visible;visibility:visible;opacity:1;isolation:auto;mix-blend-mode:normal;color-interpolation:sRGB;color-interpolation-filters:linearRGB;solid-color:#000000;solid-opacity:1;fill:#de924f;fill-opacity:1;fill-rule:evenodd;stroke:none;stroke-width:1.05833328;stroke-linecap:butt;stroke-linejoin:miter;stroke-miterlimit:4;stroke-dasharray:none;stroke-dashoffset:0;stroke-opacity:1;color-rendering:auto;image-rendering:auto;shape-rendering:auto;text-rendering:auto;enable-background:accumulate" />
    <path
       style="color:#000000;clip-rule:nonzero;display:inline;overflow:visible;visibility:visible;opacity:1;isolation:auto;mix-blend-mode:normal;color-interpolation:sRGB;color-interpolation-filters:linearRGB;solid-color:#000000;solid-opacity:1;fill:#000000;fill-opacity:1;fill-rule:evenodd;stroke:none;stroke-width:1.05833328;stroke-linecap:butt;stroke-linejoin:miter;stroke-miterlimit:4;stroke-dasharray:none;stroke-dashoffset:0;stroke-opacity:1;color-rendering:auto;image-rendering:auto;shape-rendering:auto;text-rendering:auto;enable-background:accumulate"
       d="m -274.26817,50.972364 c -0.80675,0.0132 -1.88455,0.877369 -1.8712,1.684129 0.0133,0.806759 0.97103,1.50989 1.77767,1.496549 0.80664,-0.01331 1.8839,-0.876988 1.87069,-1.683617 -0.0132,-0.806633 -0.9704,-1.510282 -1.77716,-1.497061 z m 0.0935,0.46767 c 0.52975,0.02209 1.07303,0.68729 1.02888,1.216459 -0.0442,0.529169 -0.70883,1.072991 -1.21595,1.02888 -0.50712,-0.0441 -1.333,-0.52115 -1.31004,-1.02887 0.023,-0.507719 0.96735,-1.238559 1.49711,-1.216469 z"
       id="path857"
       inkscape:connector-curvature="0"
       sodipodi:nodetypes="zzzzzzzzzz" />
    <path
       style="color:#000000;clip-rule:nonzero;display:inline;overflow:visible;visibility:visible;opacity:1;isolation:auto;mix-blend-mode:normal;color-interpolation:sRGB;color-interpolation-filters:linearRGB;solid-color:#000000;solid-opacity:1;fill:#000000;fill-opacity:1;fill-rule:evenodd;stroke:none;stroke-width:1.05833328;stroke-linecap:butt;stroke-linejoin:miter;stroke-miterlimit:4;stroke-dasharray:none;stroke-dashoffset:0;stroke-opacity:1;color-rendering:auto;image-rendering:auto;shape-rendering:auto;text-rendering:auto;enable-background:accumulate"
       d="m -268.09444,51.159404 c -0.67474,0.0619 -1.65603,0.838059 -1.59008,1.590601 0.066,0.752549 1.13206,1.452948 1.87069,1.309489 0.73862,-0.143471 1.34729,-1.209011 1.21594,-1.870692 -0.13134,-0.661678 -0.8218,-1.091319 -1.49655,-1.029398 z m -0.18706,0.467698 c 0.51827,-0.122319 1.19834,0.0541 1.30947,0.5617 0.11114,0.50759 -0.53177,1.3731 -1.02888,1.496571 -0.49711,0.12347 -1.08111,-0.33432 -1.21594,-0.84183 -0.13482,-0.507511 0.41707,-1.094129 0.93535,-1.216441 z"
       id="path865"
       inkscape:connector-curvature="0"
       sodipodi:nodetypes="zzzzzzzzzz" />
    <path
       style="color:#000000;clip-rule:nonzero;display:inline;overflow:visible;visibility:visible;opacity:1;isolation:auto;mix-blend-mode:normal;color-interpolation:sRGB;color-interpolation-filters:linearRGB;solid-color:#000000;solid-opacity:1;fill:#000000;fill-opacity:1;fill-rule:evenodd;stroke:none;stroke-width:1.05833328;stroke-linecap:butt;stroke-linejoin:miter;stroke-miterlimit:4;stroke-dasharray:none;stroke-dashoffset:0;stroke-opacity:1;color-rendering:auto;image-rendering:auto;shape-rendering:auto;text-rendering:auto;enable-background:accumulate"
       d="m -274.17481,51.533794 c -0.42119,0.038 -0.93433,0.81969 -0.8419,1.216078 0.0924,0.396391 0.48851,0.537332 0.8419,0.46772 0.35339,-0.0696 0.76915,-0.559969 0.74836,-0.93544 -0.0208,-0.37547 -0.32717,-0.786339 -0.74836,-0.748358 z"
       id="path870"
       inkscape:connector-curvature="0"
       sodipodi:nodetypes="zzzzz" />
    <path
       style="color:#000000;clip-rule:nonzero;display:inline;overflow:visible;visibility:visible;opacity:1;isolation:auto;mix-blend-mode:normal;color-interpolation:sRGB;color-interpolation-filters:linearRGB;solid-color:#000000;solid-opacity:1;fill:#000000;fill-opacity:1;fill-rule:evenodd;stroke:none;stroke-width:0.95761782;stroke-linecap:butt;stroke-linejoin:miter;stroke-miterlimit:4;stroke-dasharray:none;stroke-dashoffset:0;stroke-opacity:1;color-rendering:auto;image-rendering:auto;shape-rendering:auto;text-rendering:auto;enable-background:accumulate"
       d="m -267.74245,51.533662 c -0.42903,-0.0291 -1.09235,0.481192 -1.10035,0.931071 -0.008,0.449879 0.50202,0.856631 0.93107,0.846421 0.42904,-0.01021 0.92031,-0.521951 0.93106,-0.931061 0.0108,-0.409098 -0.33274,-0.817261 -0.76178,-0.846431 z"
       id="path872"
       inkscape:connector-curvature="0"
       sodipodi:nodetypes="zzzzz" />
    <path
       style="color:#000000;clip-rule:nonzero;display:inline;overflow:visible;visibility:visible;opacity:1;isolation:auto;mix-blend-mode:normal;color-interpolation:sRGB;color-interpolation-filters:linearRGB;solid-color:#000000;solid-opacity:1;fill:#de924f;fill-opacity:1;fill-rule:evenodd;stroke:none;stroke-width:1.05833328;stroke-linecap:butt;stroke-linejoin:miter;stroke-miterlimit:4;stroke-dasharray:none;stroke-dashoffset:0;stroke-opacity:1;color-rendering:auto;image-rendering:auto;shape-rendering:auto;text-rendering:auto;enable-background:accumulate"
       d="m -275.04976,57.473862 0.50881,-2.9e-5 c 0,0.0426 0.57558,2.970361 1.20808,3.422391 0.6325,0.45203 1.63026,0.9588 1.63026,0.9588 l 0.48819,0.576648 -2.29184,-0.841888 0.27446,0.715529 0.006,0.687631 -0.79512,-1.3564 -1.63703,1.21608 0.29693,-0.577871 1.01269,-1.293011 z"
       id="path958"
       inkscape:connector-curvature="0"
       sodipodi:nodetypes="cczcccccccccc" />
    <path
       style="color:#000000;clip-rule:nonzero;display:inline;overflow:visible;visibility:visible;opacity:1;isolation:auto;mix-blend-mode:normal;color-interpolation:sRGB;color-interpolation-filters:linearRGB;solid-color:#000000;solid-opacity:1;fill:#de924f;fill-opacity:1;fill-rule:evenodd;stroke:none;stroke-width:1.05833328;stroke-linecap:butt;stroke-linejoin:miter;stroke-miterlimit:4;stroke-dasharray:none;stroke-dashoffset:0;stroke-opacity:1;color-rendering:auto;image-rendering:auto;shape-rendering:auto;text-rendering:auto;enable-background:accumulate"
       d="m -271.46201,57.333554 1.30962,3.975629 -0.51449,1.356392 0.93547,-0.982211 2.43215,1.21607 -0.51449,-0.561271 -1.02899,-0.654809 1.87089,0.140319 -0.5145,-0.420939 c 0,0 -0.95058,-0.102491 -1.69985,-0.539551 -0.74927,-0.43706 -1.8192,-3.4539 -1.76129,-3.482859 z"
       id="path960"
       inkscape:connector-curvature="0"
       sodipodi:nodetypes="ccccccccczcc" />
    <path
       sodipodi:nodetypes="cssaassssassssasssc"
       inkscape:connector-curvature="0"
       id="path962"
       d="m -288.80963,49.667262 c -0.11307,-1.443789 -0.0341,-0.863339 -0.0302,-2.860749 0.003,-1.65233 1.6979,-1.76963 2.86457,-1.92837 1.14619,-0.15595 2.21163,0.8357 3.36838,0.83464 1.10465,-0.001 2.14293,-1.06842 3.21521,-0.80296 1.2672,0.3137 2.94561,1.31056 2.91811,2.61197 -0.0394,1.86438 -0.0272,0.3217 0.12524,2.267799 0.0618,0.78958 -0.62522,1.108932 -0.65183,0.212522 -0.0465,-1.564661 -0.0238,-0.795941 -0.17344,-2.618401 -0.0615,-0.74925 -1.31037,-1.8228 -2.29699,-1.87273 -1.12663,-0.057 -2.84982,1.02911 -2.82544,1.86276 0.0319,1.08969 0.0814,1.03329 0.12074,2.415849 0.0241,0.846741 -0.97667,0.789721 -0.91911,-0.136437 0.0519,-0.835532 -0.0672,-1.387872 -0.0266,-2.120322 0.0945,-1.70449 -1.97178,-2.17896 -3.22681,-2.00724 -0.97192,0.13299 -2.02159,1.19327 -1.98949,2.16857 0.0461,1.4011 0.34865,0.89073 0.18568,2.063761 -0.12769,0.919078 -0.4681,0.858798 -0.56447,0.377058 z"
       style="color:#000000;clip-rule:nonzero;display:inline;overflow:visible;visibility:visible;opacity:1;isolation:auto;mix-blend-mode:normal;color-interpolation:sRGB;color-interpolation-filters:linearRGB;solid-color:#000000;solid-opacity:1;fill:#005522;fill-opacity:1;fill-rule:evenodd;stroke:none;stroke-width:1.36999822;stroke-linecap:butt;stroke-linejoin:miter;stroke-miterlimit:4;stroke-dasharray:none;stroke-dashoffset:0;stroke-opacity:1;color-rendering:auto;image-rendering:auto;shape-rendering:auto;text-rendering:auto;enable-background:accumulate" />
    <path
       sodipodi:nodetypes="zzzzzzzzzz"
       inkscape:connector-curvature="0"
       id="path964"
       d="m -285.58703,46.762873 c -0.80675,0.0132 -1.88455,0.87737 -1.8712,1.68413 0.0133,0.80676 0.97103,1.509891 1.77767,1.49655 0.80664,-0.01331 1.8839,-0.87699 1.87069,-1.68362 -0.0132,-0.80663 -0.9704,-1.51028 -1.77716,-1.49706 z m 0.0604,0.40152 c 0.52975,0.0221 1.30454,0.68729 1.26039,1.21646 -0.0442,0.52917 -0.90727,1.13914 -1.41439,1.09503 -0.50712,-0.0441 -1.333,-0.52115 -1.31004,-1.02887 0.023,-0.50772 0.93428,-1.30471 1.46404,-1.28262 z"
       style="color:#000000;clip-rule:nonzero;display:inline;overflow:visible;visibility:visible;opacity:1;isolation:auto;mix-blend-mode:normal;color-interpolation:sRGB;color-interpolation-filters:linearRGB;solid-color:#000000;solid-opacity:1;fill:#000000;fill-opacity:1;fill-rule:evenodd;stroke:none;stroke-width:1.05833328;stroke-linecap:butt;stroke-linejoin:miter;stroke-miterlimit:4;stroke-dasharray:none;stroke-dashoffset:0;stroke-opacity:1;color-rendering:auto;image-rendering:auto;shape-rendering:auto;text-rendering:auto;enable-background:accumulate" />
    <path
       sodipodi:nodetypes="zzzzzzzzzz"
       inkscape:connector-curvature="0"
       id="path966"
       d="m -279.41331,46.949913 c -0.67474,0.0619 -1.65603,0.83806 -1.59008,1.5906 0.066,0.75255 1.13206,1.452951 1.87069,1.309492 0.73862,-0.143471 1.47958,-1.010572 1.34823,-1.672252 -0.13134,-0.66168 -0.95409,-1.28976 -1.62884,-1.22784 z m -0.18706,0.4677 c 0.51827,-0.12232 1.33063,0.25254 1.44176,0.76014 0.11114,0.50759 -0.66406,1.17466 -1.16117,1.29813 -0.49711,0.123471 -1.08111,-0.33432 -1.21594,-0.84183 -0.13482,-0.50751 0.41707,-1.09413 0.93535,-1.21644 z"
       style="color:#000000;clip-rule:nonzero;display:inline;overflow:visible;visibility:visible;opacity:1;isolation:auto;mix-blend-mode:normal;color-interpolation:sRGB;color-interpolation-filters:linearRGB;solid-color:#000000;solid-opacity:1;fill:#000000;fill-opacity:1;fill-rule:evenodd;stroke:none;stroke-width:1.05833328;stroke-linecap:butt;stroke-linejoin:miter;stroke-miterlimit:4;stroke-dasharray:none;stroke-dashoffset:0;stroke-opacity:1;color-rendering:auto;image-rendering:auto;shape-rendering:auto;text-rendering:auto;enable-background:accumulate" />
    <path
       sodipodi:nodetypes="zzzzz"
       inkscape:connector-curvature="0"
       id="path968"
       d="m -285.49367,47.423523 c -0.42119,0.038 -0.93433,0.55511 -0.8419,0.9515 0.0924,0.39639 0.48851,0.80191 0.8419,0.7323 0.35339,-0.0696 0.76915,-0.55997 0.74836,-0.93544 -0.0208,-0.37547 -0.32717,-0.78634 -0.74836,-0.74836 z"
       style="color:#000000;clip-rule:nonzero;display:inline;overflow:visible;visibility:visible;opacity:1;isolation:auto;mix-blend-mode:normal;color-interpolation:sRGB;color-interpolation-filters:linearRGB;solid-color:#000000;solid-opacity:1;fill:#000000;fill-opacity:1;fill-rule:evenodd;stroke:none;stroke-width:1.05833328;stroke-linecap:butt;stroke-linejoin:miter;stroke-miterlimit:4;stroke-dasharray:none;stroke-dashoffset:0;stroke-opacity:1;color-rendering:auto;image-rendering:auto;shape-rendering:auto;text-rendering:auto;enable-background:accumulate" />
    <path
       sodipodi:nodetypes="zzzzz"
       inkscape:connector-curvature="0"
       id="path970"
       d="m -279.39205,47.621833 c -0.42903,-0.0291 -0.89391,0.28275 -0.90191,0.73263 -0.008,0.44988 0.36973,0.85663 0.79878,0.84642 0.42904,-0.0102 0.82109,-0.35659 0.83184,-0.7657 0.0108,-0.4091 -0.29967,-0.78418 -0.72871,-0.81335 z"
       style="color:#000000;clip-rule:nonzero;display:inline;overflow:visible;visibility:visible;opacity:1;isolation:auto;mix-blend-mode:normal;color-interpolation:sRGB;color-interpolation-filters:linearRGB;solid-color:#000000;solid-opacity:1;fill:#000000;fill-opacity:1;fill-rule:evenodd;stroke:none;stroke-width:0.95761782;stroke-linecap:butt;stroke-linejoin:miter;stroke-miterlimit:4;stroke-dasharray:none;stroke-dashoffset:0;stroke-opacity:1;color-rendering:auto;image-rendering:auto;shape-rendering:auto;text-rendering:auto;enable-background:accumulate" />
    <path
       sodipodi:nodetypes="cczcccccccccc"
       inkscape:connector-curvature="0"
       id="path972"
       d="m -286.07096,53.264373 0.50881,-2.9e-5 c 0,0.0426 0.27792,2.970358 0.91042,3.422388 0.6325,0.45203 1.43181,0.727292 1.43181,0.727292 l 0.48819,0.576649 -2.09339,-0.610381 0.043,0.550172 0.006,0.687628 -0.56361,-1.19104 -1.86854,0.918422 0.29693,-0.577871 1.2442,-0.99535 z"
       style="color:#000000;clip-rule:nonzero;display:inline;overflow:visible;visibility:visible;opacity:1;isolation:auto;mix-blend-mode:normal;color-interpolation:sRGB;color-interpolation-filters:linearRGB;solid-color:#000000;solid-opacity:1;fill:#de924f;fill-opacity:1;fill-rule:evenodd;stroke:none;stroke-width:1.05833328;stroke-linecap:butt;stroke-linejoin:miter;stroke-miterlimit:4;stroke-dasharray:none;stroke-dashoffset:0;stroke-opacity:1;color-rendering:auto;image-rendering:auto;shape-rendering:auto;text-rendering:auto;enable-background:accumulate" />
    <path
       sodipodi:nodetypes="ccccccccczcc"
       inkscape:connector-curvature="0"
       id="path974"
       d="m -282.11942,53.090994 0.64816,4.0087 -1.14288,0.959509 1.56386,-0.58533 1.40689,0.984559 -0.0184,-0.296688 -0.49982,-0.687882 1.63938,0.008 -0.5145,-0.420939 c 0,0 -1.31438,-0.102492 -1.6337,-0.374193 -0.31933,-0.27169 -1.12467,-3.586188 -1.06676,-3.615147 z"
       style="color:#000000;clip-rule:nonzero;display:inline;overflow:visible;visibility:visible;opacity:1;isolation:auto;mix-blend-mode:normal;color-interpolation:sRGB;color-interpolation-filters:linearRGB;solid-color:#000000;solid-opacity:1;fill:#de924f;fill-opacity:1;fill-rule:evenodd;stroke:none;stroke-width:1.05833328;stroke-linecap:butt;stroke-linejoin:miter;stroke-miterlimit:4;stroke-dasharray:none;stroke-dashoffset:0;stroke-opacity:1;color-rendering:auto;image-rendering:auto;shape-rendering:auto;text-rendering:auto;enable-background:accumulate" />
    <path
       style="color:#000000;clip-rule:nonzero;display:inline;overflow:visible;visibility:visible;opacity:1;isolation:auto;mix-blend-mode:normal;color-interpolation:sRGB;color-interpolation-filters:linearRGB;solid-color:#000000;solid-opacity:1;fill:#aa0000;fill-opacity:1;fill-rule:evenodd;stroke:none;stroke-width:1.36999822;stroke-linecap:butt;stroke-linejoin:miter;stroke-miterlimit:4;stroke-dasharray:none;stroke-dashoffset:0;stroke-opacity:1;color-rendering:auto;image-rendering:auto;shape-rendering:auto;text-rendering:auto;enable-background:accumulate"
       d="m -311.2225,54.311403 c -0.11307,-1.443788 -0.0569,-0.86351 -0.0302,-2.860749 0.0205,-1.531561 2.46482,-1.8548 3.92291,-1.961451 0.95886,-0.0701 1.77879,0.8802 2.74,0.90079 1.06745,0.02291 2.0204,-0.97412 3.08292,-0.86911 1.35268,0.13369 3.0779,1.37671 3.0504,2.678121 -0.0394,1.864379 0.006,0.487059 -0.0401,2.400089 -0.019,0.791771 -0.6443,1.109289 -0.65183,0.212521 -0.0134,-1.597731 0.14156,-0.92823 -0.008,-2.75069 -0.0615,-0.74925 -1.31203,-1.79672 -2.29699,-1.872732 -1.20296,-0.0928 -3.14748,0.99604 -3.1231,1.829692 0.0319,1.089689 0.0814,1.03329 0.12074,2.41585 0.0241,0.84674 -0.87745,0.85586 -0.81989,-0.0703 0.0519,-0.835531 -0.0672,-1.387869 -0.0266,-2.120321 0.0945,-1.704491 -1.29355,-2.048179 -2.33385,-2.073381 -1.20494,-0.0292 -2.84841,1.292493 -2.81631,2.267792 0.0461,1.401098 -0.0151,0.956868 -0.0128,2.030679 0.002,0.92791 -0.56731,0.79266 -0.66368,0.31092 z"
       id="path976"
       inkscape:connector-curvature="0"
       sodipodi:nodetypes="csaasssssassssasssc" />
    <path
       style="color:#000000;clip-rule:nonzero;display:inline;overflow:visible;visibility:visible;opacity:1;isolation:auto;mix-blend-mode:normal;color-interpolation:sRGB;color-interpolation-filters:linearRGB;solid-color:#000000;solid-opacity:1;fill:#000000;fill-opacity:1;fill-rule:evenodd;stroke:none;stroke-width:1.05833328;stroke-linecap:butt;stroke-linejoin:miter;stroke-miterlimit:4;stroke-dasharray:none;stroke-dashoffset:0;stroke-opacity:1;color-rendering:auto;image-rendering:auto;shape-rendering:auto;text-rendering:auto;enable-background:accumulate"
       d="m -302.0478,51.440084 c 0.80675,0.0132 1.9507,0.678929 1.93735,1.485689 -0.0133,0.806759 -1.03718,1.708329 -1.84382,1.694989 -0.80664,-0.01331 -1.68546,-0.480107 -1.67225,-1.28674 0.0132,-0.80663 0.77196,-1.907159 1.57872,-1.893938 z m -0.0935,0.46767 c -0.52975,0.02209 -1.13918,0.9188 -1.09503,1.447969 0.0442,0.529169 0.77498,0.841481 1.2821,0.79737 0.50712,-0.0441 1.39915,-0.71959 1.37619,-1.22731 -0.023,-0.507719 -1.0335,-1.040119 -1.56326,-1.018029 z"
       id="path978"
       inkscape:connector-curvature="0"
       sodipodi:nodetypes="zzzzzzzzzz" />
    <path
       style="color:#000000;clip-rule:nonzero;display:inline;overflow:visible;visibility:visible;opacity:1;isolation:auto;mix-blend-mode:normal;color-interpolation:sRGB;color-interpolation-filters:linearRGB;solid-color:#000000;solid-opacity:1;fill:#000000;fill-opacity:1;fill-rule:evenodd;stroke:none;stroke-width:1.05833328;stroke-linecap:butt;stroke-linejoin:miter;stroke-miterlimit:4;stroke-dasharray:none;stroke-dashoffset:0;stroke-opacity:1;color-rendering:auto;image-rendering:auto;shape-rendering:auto;text-rendering:auto;enable-background:accumulate"
       d="m -308.22153,51.627123 c 0.67474,0.0619 1.58989,0.474261 1.52394,1.226799 -0.066,0.752552 -1.06592,1.816751 -1.80455,1.673291 -0.73862,-0.14347 -1.41343,-0.77906 -1.28208,-1.44074 0.13134,-0.661681 0.88794,-1.52127 1.56269,-1.45935 z m 0.18706,0.467699 c -0.51827,-0.122319 -1.26448,0.48405 -1.37561,0.991651 -0.11114,0.507589 0.59791,0.943149 1.09502,1.06662 0.49711,0.12347 1.01497,-0.698119 1.1498,-1.20563 0.13482,-0.50751 -0.35093,-0.730329 -0.86921,-0.852641 z"
       id="path980"
       inkscape:connector-curvature="0"
       sodipodi:nodetypes="zzzzzzzzzz" />
    <path
       style="color:#000000;clip-rule:nonzero;display:inline;overflow:visible;visibility:visible;opacity:1;isolation:auto;mix-blend-mode:normal;color-interpolation:sRGB;color-interpolation-filters:linearRGB;solid-color:#000000;solid-opacity:1;fill:#000000;fill-opacity:1;fill-rule:evenodd;stroke:none;stroke-width:1.05833328;stroke-linecap:butt;stroke-linejoin:miter;stroke-miterlimit:4;stroke-dasharray:none;stroke-dashoffset:0;stroke-opacity:1;color-rendering:auto;image-rendering:auto;shape-rendering:auto;text-rendering:auto;enable-background:accumulate"
       d="m -302.14116,52.001514 c 0.42119,0.038 0.9674,0.58818 0.87497,0.98457 -0.0924,0.396389 -0.52158,0.76884 -0.87497,0.699231 -0.35339,-0.0696 -0.86837,-0.361532 -0.84758,-0.737003 0.0208,-0.37547 0.42639,-0.984779 0.84758,-0.946798 z"
       id="path982"
       inkscape:connector-curvature="0"
       sodipodi:nodetypes="zzzzz" />
    <path
       style="color:#000000;clip-rule:nonzero;display:inline;overflow:visible;visibility:visible;opacity:1;isolation:auto;mix-blend-mode:normal;color-interpolation:sRGB;color-interpolation-filters:linearRGB;solid-color:#000000;solid-opacity:1;fill:#000000;fill-opacity:1;fill-rule:evenodd;stroke:none;stroke-width:0.95761782;stroke-linecap:butt;stroke-linejoin:miter;stroke-miterlimit:4;stroke-dasharray:none;stroke-dashoffset:0;stroke-opacity:1;color-rendering:auto;image-rendering:auto;shape-rendering:auto;text-rendering:auto;enable-background:accumulate"
       d="m -308.40815,52.133674 c 0.42903,-0.0291 0.92698,0.3489 0.93498,0.798779 0.008,0.449879 -0.50202,0.856631 -0.93107,0.846421 -0.42904,-0.01021 -0.72187,-0.323511 -0.73262,-0.732621 -0.0108,-0.409099 0.29967,-0.883409 0.72871,-0.912579 z"
       id="path984"
       inkscape:connector-curvature="0"
       sodipodi:nodetypes="zzzzz" />
    <path
       style="color:#000000;clip-rule:nonzero;display:inline;overflow:visible;visibility:visible;opacity:1;isolation:auto;mix-blend-mode:normal;color-interpolation:sRGB;color-interpolation-filters:linearRGB;solid-color:#000000;solid-opacity:1;fill:#de924f;fill-opacity:1;fill-rule:evenodd;stroke:none;stroke-width:1.05833328;stroke-linecap:butt;stroke-linejoin:miter;stroke-miterlimit:4;stroke-dasharray:none;stroke-dashoffset:0;stroke-opacity:1;color-rendering:auto;image-rendering:auto;shape-rendering:auto;text-rendering:auto;enable-background:accumulate"
       d="m -301.99381,57.842363 -0.50881,-2.9e-5 c 0,0.0426 0.15202,3.06958 -0.48048,3.52161 -0.6325,0.45203 -1.56411,0.66114 -1.56411,0.66114 l -0.48819,0.576649 2.22569,-0.544229 -0.076,1.079331 0.22551,0.555339 0.36517,-1.58791 1.90162,0.8192 -0.29693,-0.577871 -1.27728,-0.896131 z"
       id="path986"
       inkscape:connector-curvature="0"
       sodipodi:nodetypes="cczcccccccccc" />
    <path
       style="color:#000000;clip-rule:nonzero;display:inline;overflow:visible;visibility:visible;opacity:1;isolation:auto;mix-blend-mode:normal;color-interpolation:sRGB;color-interpolation-filters:linearRGB;solid-color:#000000;solid-opacity:1;fill:#de924f;fill-opacity:1;fill-rule:evenodd;stroke:none;stroke-width:1.05833328;stroke-linecap:butt;stroke-linejoin:miter;stroke-miterlimit:4;stroke-dasharray:none;stroke-dashoffset:0;stroke-opacity:1;color-rendering:auto;image-rendering:auto;shape-rendering:auto;text-rendering:auto;enable-background:accumulate"
       d="m -305.67426,57.760784 0.29315,3.02599 0.87571,1.156559 -1.17425,-0.67896 -1.99116,1.85188 0.33557,-0.683459 0.80289,-0.91812 -1.75562,0.661599 0.37511,-0.54881 c 0,0 0.88322,-0.36609 1.47908,-0.99646 0.59584,-0.630399 0.30969,-2.933489 0.24596,-2.944969 z"
       id="path988"
       inkscape:connector-curvature="0"
       sodipodi:nodetypes="ccccccccczcc" />
    <path
       style="color:#000000;clip-rule:nonzero;display:inline;overflow:visible;visibility:visible;opacity:1;isolation:auto;mix-blend-mode:normal;color-interpolation:sRGB;color-interpolation-filters:linearRGB;solid-color:#000000;solid-opacity:1;fill:#782144;fill-opacity:1;fill-rule:evenodd;stroke:none;stroke-width:1.36999822;stroke-linecap:butt;stroke-linejoin:miter;stroke-miterlimit:4;stroke-dasharray:none;stroke-dashoffset:0;stroke-opacity:1;color-rendering:auto;image-rendering:auto;shape-rendering:auto;text-rendering:auto;enable-background:accumulate"
       d="m -277.92072,53.843684 c -0.11307,-1.443792 -0.0569,-0.86351 -0.0302,-2.860749 0.0205,-1.531562 2.46482,-1.854802 3.92291,-1.961452 0.95886,-0.0701 1.77937,0.861621 2.74,0.90079 1.23736,0.0504 2.42531,-1.2229 3.61209,-0.86911 1.17496,0.35027 2.54873,1.37671 2.52123,2.678119 -0.0394,1.864381 -0.0272,0.321702 0.12524,2.267802 0.0618,0.78958 -0.62522,1.10893 -0.65183,0.212519 -0.0465,-1.564659 -0.0238,-0.795939 -0.17344,-2.618399 -0.0615,-0.74925 -1.31037,-1.822802 -2.29699,-1.872732 -1.12663,-0.057 -2.84982,1.029111 -2.82544,1.862762 0.0319,1.08969 0.0814,1.033288 0.12074,2.41585 0.0241,0.846738 -0.97667,0.78972 -0.91911,-0.13644 0.0519,-0.835531 -0.0672,-1.38787 -0.0266,-2.120321 0.0945,-1.704491 -1.44831,-2.04506 -2.53229,-2.04031 -1.15715,0.005 -2.71612,1.226341 -2.68402,2.20164 0.0461,1.401101 0.34865,0.89073 0.18568,2.06376 -0.12769,0.919081 -0.89804,0.825731 -0.99441,0.34399 z"
       id="path817"
       inkscape:connector-curvature="0"
       sodipodi:nodetypes="csaaassssassssasssc" />
  </g>
</svg>
