<?xml version="1.0" encoding="UTF-8" standalone="no"?>
<svg
   xmlns:dc="http://purl.org/dc/elements/1.1/"
   xmlns:cc="http://creativecommons.org/ns#"
   xmlns:rdf="http://www.w3.org/1999/02/22-rdf-syntax-ns#"
   xmlns:svg="http://www.w3.org/2000/svg"
   xmlns="http://www.w3.org/2000/svg"
   id="svg4614"
   version="1.1"
   viewBox="0 0 32.435509 31.027479"
   height="31.027479mm"
   width="32.435509mm">
  <defs
     id="defs4608" />
  <metadata
     id="metadata4611">
    <rdf:RDF>
      <cc:Work
         rdf:about="">
        <dc:format>image/svg+xml</dc:format>
        <dc:type
           rdf:resource="http://purl.org/dc/dcmitype/StillImage" />
        <dc:title></dc:title>
      </cc:Work>
    </rdf:RDF>
  </metadata>
  <g
     transform="translate(283.8249,31.478026)"
     id="layer1">
    <path
       d="m 143.16211,155.56445 c -2.53731,-0.0193 -4.10334,0.81334 -5.16602,1.61914 -0.53133,0.4029 -0.94401,0.79427 -1.28515,1.05274 -0.34115,0.25846 -0.57404,0.3635 -0.80469,0.35156 -0.25053,-0.013 -0.51479,-0.14269 -0.85547,-0.39648 -0.34068,-0.2538 -0.73728,-0.61659 -1.23047,-0.98633 -0.98637,-0.73949 -2.38741,-1.48849 -4.56054,-1.45313 -2.1554,0.0351 -3.52996,0.68385 -4.41016,1.30274 -0.4401,0.30944 -0.76151,0.61027 -0.98242,0.79687 -0.0894,0.0755 -0.14493,0.1137 -0.18946,0.14258 -0.016,-0.0142 -0.0408,-0.0231 -0.11523,-0.12891 -0.0989,-0.14057 -0.2141,-0.35208 -0.34961,-0.57421 -0.13551,-0.22214 -0.28977,-0.45821 -0.51953,-0.65625 -0.22976,-0.19805 -0.56717,-0.34782 -0.93359,-0.3125 -0.68047,0.0656 -1.14149,0.59667 -1.38868,1.17968 -0.24718,0.58302 -0.34179,1.26735 -0.34179,1.91407 v 12.3789 c 0,0.54554 0.15741,1.07123 0.46875,1.48828 0.31133,0.41706 0.79629,0.71922 1.36914,0.75586 0.56584,0.0362 1.10614,-0.20988 1.43164,-0.6582 0.3255,-0.44832 0.4668,-1.05141 0.46679,-1.77539 0,-0.73292 -0.15544,-2.31018 -0.15039,-4.07422 0.005,-1.76404 0.18716,-3.684 0.76758,-4.89453 0.61957,-1.29218 1.30216,-2.15488 2.10352,-2.69141 0.80136,-0.53652 1.74034,-0.76926 2.95898,-0.73828 1.25866,0.032 1.88159,0.15604 2.33594,0.50977 0.45435,0.35372 0.83797,1.04647 1.42187,2.34179 0.51677,1.14637 0.66725,3.40797 0.63868,5.47266 -0.0286,2.06469 -0.20508,3.89624 -0.20508,4.54687 0,0.6492 0.20177,1.21851 0.5664,1.61915 0.36464,0.40064 0.91035,0.61629 1.4668,0.52734 1.03117,-0.16483 1.89258,-1.11918 1.89258,-2.52344 0,-0.67332 -0.11301,-2.40794 -0.0644,-4.33398 0.0486,-1.92604 0.2833,-4.02348 0.86718,-5.19727 0.62611,-1.25865 1.28244,-1.96429 2.03711,-2.38281 0.75468,-0.41852 1.64449,-0.56097 2.76368,-0.58008 2.10353,-0.0359 3.41451,1.33074 4.32226,2.97852 0.16941,0.3075 0.34533,1.05226 0.44922,1.95703 0.10389,0.90476 0.15832,1.98457 0.18164,3.05664 0.0466,2.14414 -0.0254,4.24158 -0.0254,4.97461 0,0.78495 0.23042,1.36576 0.6543,1.6914 0.42388,0.32565 0.94636,0.34489 1.39062,0.26368 0.17595,-0.0322 0.32763,-0.0521 0.49414,-0.0996 0.16651,-0.0475 0.36809,-0.14397 0.50586,-0.32032 0.27555,-0.35268 0.26758,-0.74962 0.26758,-1.4414 v -10.58399 c 0,-0.48557 -0.22292,-1.00405 -0.5957,-1.6289 -0.37278,-0.62485 -0.9143,-1.3216 -1.61524,-1.98047 -1.40187,-1.31774 -3.45791,-2.4902 -6.0332,-2.50977 z m -4.22656,20.88282 c -0.83768,0.0142 -1.44075,0.5973 -1.94727,1.07421 -0.25326,0.23846 -0.4851,0.46478 -0.68359,0.61329 -0.19849,0.1485 -0.34757,0.20117 -0.42188,0.20117 -0.25264,0 -0.575,-0.21305 -1.00195,-0.54492 -0.42695,-0.33188 -0.9501,-0.75341 -1.66992,-0.86524 -0.74744,-0.11611 -1.74063,0.10025 -2.64453,0.56445 -0.90391,0.4642 -1.75,1.24492 -1.75,2.33789 0,1.67353 -0.18946,3.67581 -0.18946,4.47852 0,0.43459 0.1419,0.81564 0.42774,1.00391 0.28583,0.18826 0.53806,0.1716 0.71289,0.19726 0.26905,0.0395 0.62216,0.0461 0.98437,-0.082 0.18111,-0.0641 0.36761,-0.16636 0.51758,-0.3418 0.14997,-0.17543 0.24414,-0.42512 0.24414,-0.68359 0,-0.38038 -0.0563,-1.17043 -0.0488,-2.01367 0.008,-0.84324 0.11585,-1.73824 0.28516,-2.07031 0.24297,-0.47653 0.4274,-0.72786 0.58789,-0.85743 0.1605,-0.12956 0.32279,-0.18578 0.66602,-0.2246 0.30541,-0.0346 0.49302,0.006 0.70898,0.14648 0.21596,0.14028 0.46489,0.41294 0.74805,0.87109 0.1963,0.31764 0.32743,1.16759 0.3457,1.99024 0.0183,0.82264 -0.0371,1.61168 -0.0371,2.02734 0,0.46781 0.21028,0.86898 0.51563,1.04297 0.30534,0.17399 0.59164,0.15816 0.77148,0.16406 0.20102,0.007 0.4838,0.0228 0.78516,-0.13281 0.30135,-0.15563 0.53124,-0.54453 0.53125,-0.98047 0,-0.43632 -0.12279,-1.21261 -0.15821,-2.07812 -0.0354,-0.86552 0.0589,-1.77115 0.2793,-2.125 0.32056,-0.51457 0.62884,-0.89033 0.90234,-1.09766 0.27351,-0.20733 0.47793,-0.26085 0.74414,-0.20898 0.37752,0.0735 0.64662,0.15345 0.8379,0.28515 0.19127,0.1317 0.34518,0.31876 0.48437,0.73633 0.10358,0.31075 0.11334,1.21612 0.0508,2.07227 -0.0626,0.85614 -0.16797,1.668 -0.16797,2.13281 0,0.49695 0.25501,0.92068 0.59766,1.08984 0.34265,0.16916 0.67979,0.14446 0.94531,0.11328 0.18779,-0.022 0.47381,0.0292 0.78125,-0.21875 0.15372,-0.12398 0.25347,-0.3083 0.30469,-0.5 0.0512,-0.19169 0.0684,-0.40423 0.0684,-0.67383 0,-1.04595 -0.18945,-2.783 -0.18945,-4.1582 0,-0.94567 -0.67721,-1.73466 -1.45313,-2.3164 -0.77592,-0.58174 -1.67344,-0.98214 -2.46484,-0.96875 z"
       id="path4590"
       style="color:#000000;clip-rule:nonzero;display:inline;overflow:visible;visibility:visible;opacity:1;isolation:auto;mix-blend-mode:normal;color-interpolation:sRGB;color-interpolation-filters:linearRGB;solid-color:#000000;solid-opacity:1;fill:none;fill-opacity:1;fill-rule:evenodd;stroke:#000000;stroke-width:1.05833328;stroke-linecap:butt;stroke-linejoin:miter;stroke-miterlimit:4;stroke-dasharray:none;stroke-dashoffset:0;stroke-opacity:1;color-rendering:auto;image-rendering:auto;shape-rendering:auto;text-rendering:auto;enable-background:accumulate"
       transform="translate(-403.32503,-186.51299)" />
  </g>
</svg>
