<?xml version="1.0" encoding="UTF-8" standalone="no"?>
<!-- Generator: Adobe Illustrator 19.0.0, SVG Export Plug-In . SVG Version: 6.00 Build 0)  -->

<svg
   xmlns:dc="http://purl.org/dc/elements/1.1/"
   xmlns:cc="http://creativecommons.org/ns#"
   xmlns:rdf="http://www.w3.org/1999/02/22-rdf-syntax-ns#"
   xmlns:svg="http://www.w3.org/2000/svg"
   xmlns="http://www.w3.org/2000/svg"
   xmlns:xlink="http://www.w3.org/1999/xlink"
   xmlns:sodipodi="http://sodipodi.sourceforge.net/DTD/sodipodi-0.dtd"
   xmlns:inkscape="http://www.inkscape.org/namespaces/inkscape"
   version="1.1"
   id="Layer_1"
   x="0px"
   y="0px"
   viewBox="0 0 151.1811 151.1811"
   xml:space="preserve"
   sodipodi:docname="qr_ltc.svg"
   inkscape:version="0.92.2 5c3e80d, 2017-08-06"
   width="40mm"
   height="40mm"><metadata
     id="metadata5105"><rdf:RDF><cc:Work
         rdf:about=""><dc:format>image/svg+xml</dc:format><dc:type
           rdf:resource="http://purl.org/dc/dcmitype/StillImage" /><dc:title></dc:title></cc:Work></rdf:RDF></metadata><defs
     id="defs5103" /><sodipodi:namedview
     pagecolor="#ffffff"
     bordercolor="#666666"
     borderopacity="1"
     objecttolerance="10"
     gridtolerance="10"
     guidetolerance="10"
     inkscape:pageopacity="0"
     inkscape:pageshadow="2"
     inkscape:window-width="1770"
     inkscape:window-height="1061"
     id="namedview5101"
     showgrid="false"
     inkscape:zoom="1"
     inkscape:cx="65.728603"
     inkscape:cy="-12.764508"
     inkscape:window-x="150"
     inkscape:window-y="0"
     inkscape:window-maximized="1"
     inkscape:current-layer="g1402"
     fit-margin-top="0"
     fit-margin-left="0"
     fit-margin-right="0"
     fit-margin-bottom="0"
     units="mm" /><style
     type="text/css"
     id="style5052">
	.st0{fill:url(#path11087_2_);}
	.st1{fill:#FFFFFF;}
	.st2{fill:url(#path11093_2_);}
	.st3{fill:url(#path11095_2_);}
	.st4{fill:url(#path11097_2_);}
	.st5{fill:url(#path11099_2_);}
	.st6{fill:url(#path11101_2_);}
	.st7{fill:url(#path11103_2_);}
</style><g
     id="XMLID_551_"
     transform="translate(-81.3,-1142.5189)"><linearGradient
       id="path11087_2_"
       gradientUnits="userSpaceOnUse"
       x1="1912.6942"
       y1="-961.28552"
       x2="1912.6942"
       y2="-3334.8577"
       gradientTransform="matrix(0.4581,0,0,-0.4581,-251.2052,-235.9138)"><stop
         offset="0"
         style="stop-color:#4F4F4F"
         id="stop5054" /><stop
         offset="1"
         style="stop-color:#333333"
         id="stop5056" /></linearGradient><linearGradient
       id="path11103_2_"
       gradientUnits="userSpaceOnUse"
       x1="2132.2969"
       y1="-1526.3345"
       x2="2408.874"
       y2="-2626.9675"
       gradientTransform="matrix(0.4581,0,0,-0.4581,-251.2052,-235.9138)"
       xlink:href="#path11087_2_"><stop
         offset="0"
         style="stop-color:#0f0f0f;stop-opacity:1"
         id="stop5092" /><stop
         offset="1"
         style="stop-color:#000000;stop-opacity:1"
         id="stop5094" /></linearGradient><g
       id="g1402"
       transform="matrix(0.18566231,0,0,0.18566231,37.151132,1085.2496)"><path
         d="m 529.09961,405.89844 a 26.203674,26.203674 0 0 0 -26.20117,26.20117 v -1.54297 l -67.23633,255.75781 c -11.66065,4.29392 -23.32044,8.5875 -34.98242,12.88282 a 26.203674,26.203674 0 0 0 -16.26367,17.84179 c -14.31969,53.75015 -28.64351,107.49952 -42.9668,161.25 a 26.203674,26.203674 0 0 0 34.51367,31.28125 c 0.29884,-0.11199 0.59765,-0.22394 0.89649,-0.33593 -7.29686,27.73307 -14.59402,55.46588 -21.89063,83.19921 a 26.203674,26.203674 0 0 0 25.33789,32.86721 h 496.73438 a 26.203674,26.203674 0 0 0 25.33593,-19.5254 c 15.35188,-58.2668 30.70179,-116.53397 46.05469,-174.79884 A 26.203674,26.203674 0 0 0 923.0957,798.09961 H 697.23828 c 0.80502,-3.07348 1.60905,-6.14722 2.41406,-9.2207 11.65547,-4.2912 23.3118,-8.58223 34.96875,-12.875 a 26.203674,26.203674 0 0 0 16.26368,-17.8418 c 14.32023,-53.7552 28.64511,-107.50959 42.96875,-161.26563 a 26.203674,26.203674 0 0 0 -34.59375,-31.25 c -0.0841,0.0318 -0.16792,0.0639 -0.25196,0.0957 11.14167,-42.32404 22.28295,-84.64786 33.42383,-126.97266 a 26.203674,26.203674 0 0 0 -25.33789,-32.87109 z"
         id="path11103_1_"
         style="fill:url(#path11103_2_);fill-opacity:1.0"
         inkscape:original="M 529.09961 432.09961 L 529.09961 433.09961 L 529.09961 433.94336 L 457.53125 706.18164 C 441.59901 712.04897 425.66635 717.91517 409.73438 723.7832 C 395.4144 777.53447 381.09085 831.28477 366.76758 885.03516 C 382.87252 878.99969 398.97719 872.96349 415.08203 866.92773 C 403.49029 910.98504 391.89809 955.04223 380.30664 999.09961 L 877.04102 999.09961 C 892.39275 940.83338 907.74254 882.56663 923.0957 824.30078 L 663.29102 824.30078 C 668.11784 805.8724 672.94466 787.44401 677.77148 769.01562 C 693.70307 763.14959 709.63512 757.28481 725.56641 751.41797 C 739.88698 697.66149 754.21162 643.90608 768.53516 590.15039 C 752.59693 596.18298 736.66026 602.21968 720.72266 608.25391 C 736.17952 549.53576 751.6377 490.81797 767.09375 432.09961 L 529.09961 432.09961 z "
         inkscape:radius="26.201054"
         sodipodi:type="inkscape:offset" /><path
         style="fill:#ffffff;fill-opacity:1"
         inkscape:connector-curvature="0"
         d="M 553.6,463.3 483.3,728.5 435,747.3 411.9,834 460.2,815.9 420.1,967.5 H 852.3 L 882,854.9 H 622.3 l 29.1,-109.8 47.8,-17.6 23.1,-86.8 -47.8,18.1 51.1,-195.5 z"
         class="st1"
         id="path11105_1_" /></g></g></svg>