<?xml version="1.0" encoding="UTF-8" standalone="no"?>
<!-- Created with Inkscape (http://www.inkscape.org/) -->

<svg
   xmlns:dc="http://purl.org/dc/elements/1.1/"
   xmlns:cc="http://creativecommons.org/ns#"
   xmlns:rdf="http://www.w3.org/1999/02/22-rdf-syntax-ns#"
   xmlns:svg="http://www.w3.org/2000/svg"
   xmlns="http://www.w3.org/2000/svg"
   xmlns:sodipodi="http://sodipodi.sourceforge.net/DTD/sodipodi-0.dtd"
   xmlns:inkscape="http://www.inkscape.org/namespaces/inkscape"
   width="127.18899mm"
   height="47.81398mm"
   viewBox="0 0 127.18899 47.81398"
   version="1.1"
   id="svg3776"
   inkscape:version="0.92.2 5c3e80d, 2017-08-06"
   sodipodi:docname="smallart2b.svg">
  <defs
     id="defs3770">
    <filter
       style="color-interpolation-filters:sRGB"
       inkscape:label="Lightness-Contrast"
       id="filter5348">
      <feColorMatrix
         values="0.4706 0 0 -0.055074 0.2647 0 0.4706 0 -0.055074 0.2647 0 0 0.4706 -0.055074 0.2647 0 0 0 1 0"
         id="feColorMatrix5346" />
    </filter>
    <filter
       style="color-interpolation-filters:sRGB"
       inkscape:label="Lightness-Contrast"
       id="filter5547">
      <feColorMatrix
         values="0.2995 0 0 0.462122 0.35025 0 0.2995 0 0.462122 0.35025 0 0 0.2995 0.462122 0.35025 0 0 0 1 0"
         id="feColorMatrix5545" />
    </filter>
    <filter
       style="color-interpolation-filters:sRGB"
       inkscape:label="Lightness-Contrast"
       id="filter5895">
      <feColorMatrix
         values="0.545455 0 0 -0.152923 0.227273 0 0.545455 0 -0.152923 0.227273 0 0 0.545455 -0.152923 0.227273 0 0 0 1 0"
         id="feColorMatrix5893" />
    </filter>
    <clipPath
       clipPathUnits="userSpaceOnUse"
       id="clipPath5914">
      <rect
         ry="5.0781212"
         y="83.751396"
         x="-70.354912"
         height="47.573975"
         width="60.803768"
         id="rect5916"
         style="opacity:1;fill:#5b7660;fill-opacity:1;stroke:none;stroke-width:10.27600002;stroke-linecap:butt;stroke-linejoin:round;stroke-miterlimit:4;stroke-dasharray:none;stroke-opacity:1" />
    </clipPath>
    <clipPath
       clipPathUnits="userSpaceOnUse"
       id="clipPath5942">
      <rect
         style="opacity:1;fill:#5b7660;fill-opacity:1;stroke:none;stroke-width:10.27600002;stroke-linecap:butt;stroke-linejoin:round;stroke-miterlimit:4;stroke-dasharray:none;stroke-opacity:1"
         id="rect5944"
         width="98.756042"
         height="47.573982"
         x="-87.192894"
         y="83.751396"
         ry="5.0781212" />
    </clipPath>
    <clipPath
       clipPathUnits="userSpaceOnUse"
       id="clipPath6063">
      <path
         style="opacity:1;fill:#7e5e3b;fill-opacity:1;stroke:none;stroke-width:12.77599907;stroke-linecap:butt;stroke-linejoin:round;stroke-miterlimit:4;stroke-dasharray:none;stroke-opacity:1"
         d="m -97.864195,104.19751 c 0.06152,-7.084942 -9.817645,-7.302447 -16.303445,-7.416733 -6.4858,-0.114286 -18.8284,0.664519 -18.97613,8.218533 -0.14773,7.55402 -0.88472,18.7333 -1.87089,22.98518 -0.98616,4.25188 -4.80992,6.08048 -5.24336,7.16485 -0.43345,1.08438 0.63222,1.48696 1.53679,1.53681 0.90458,0.0498 7.26813,-1.67315 7.58591,0.79314 0.31778,2.46629 0.23799,5.13343 1.99027,5.02472 1.75228,-0.10871 7.60569,-2.36199 9.9155,-2.79208 2.30981,-0.4301 3.76644,-1.11158 6.66553,-0.50211 2.89909,0.60947 9.08962,1.95328 10.49033,2.33861 1.4007,0.38532 2.222064,-0.60102 1.87089,-2.13817 -0.35118,-1.53716 0.607174,-2.70589 1.804065,-4.20949 1.19689,-1.5036 4.997381,0.51814 6.414471,0.26727 1.4171,-0.25087 1.877229,-0.15762 1.87089,-1.87089 -0.006,-1.71327 -4.921602,-7.46355 -6.414471,-12.02713 -1.492869,-4.56358 -1.397866,-10.28757 -1.33635,-17.37251 z"
         id="path6065"
         inkscape:connector-curvature="0"
         sodipodi:nodetypes="zzzzzzzzzzzzzzzzz" />
    </clipPath>
    <clipPath
       clipPathUnits="userSpaceOnUse"
       id="clipPath6099">
      <g
         transform="translate(18.89881,-9.2604161)"
         id="g6129">
        <path
           style="opacity:1;fill:#7e5e3b;fill-opacity:1;stroke:none;stroke-width:12.77599907;stroke-linecap:butt;stroke-linejoin:round;stroke-miterlimit:4;stroke-dasharray:none;stroke-opacity:1"
           d="m -97.864195,104.19751 c 0.06152,-7.084942 -9.817645,-7.302447 -16.303445,-7.416733 -6.4858,-0.114286 -18.8284,0.664519 -18.97613,8.218533 -0.14773,7.55402 -0.88472,18.7333 -1.87089,22.98518 -0.98616,4.25188 -4.80992,6.08048 -5.24336,7.16485 -0.43345,1.08438 0.63222,1.48696 1.53679,1.53681 0.90458,0.0498 7.26813,-1.67315 7.58591,0.79314 0.31778,2.46629 0.23799,5.13343 1.99027,5.02472 1.75228,-0.10871 7.60569,-2.36199 9.9155,-2.79208 2.30981,-0.4301 3.76644,-1.11158 6.66553,-0.50211 2.89909,0.60947 9.08962,1.95328 10.49033,2.33861 1.4007,0.38532 2.222065,-0.60102 1.87089,-2.13817 -0.35118,-1.53716 0.607175,-2.70589 1.804065,-4.20949 1.19689,-1.5036 4.99738,0.51814 6.41447,0.26727 1.4171,-0.25087 1.87723,-0.15762 1.87089,-1.87089 -0.006,-1.71327 -4.9216,-7.46355 -6.41447,-12.02713 -1.49287,-4.56358 -1.397866,-10.28757 -1.33635,-17.37251 z"
           id="path6101"
           inkscape:connector-curvature="0"
           sodipodi:nodetypes="zzzzzzzzzzzzzzzzz" />
        <path
           clip-path="url(#clipPath6063)"
           style="opacity:1;fill:#937d50;fill-opacity:1;stroke:none;stroke-width:1.07599998;stroke-linecap:butt;stroke-linejoin:round;stroke-miterlimit:4;stroke-dasharray:none;stroke-opacity:1"
           d="m -121.68403,106.26885 c -3.54832,4.96928 -0.40148,12.64066 2.60588,14.56619 3.00736,1.92553 3.02606,-3.93131 6.41447,-1.67044 3.38841,2.26087 0.73716,14.23737 2.47224,17.63979 1.73508,3.40242 1.33903,4.55637 2.73952,5.27857 1.40048,0.7222 4.07128,2.17779 4.81085,2.40543 0.73956,0.22763 4.497701,-1.68405 4.677213,-2.67269 0.179516,-0.9887 -2.028041,-4.97136 -0.400904,-6.14721 1.627138,-1.17585 4.922686,-0.15808 6.481287,-0.10022 1.558601,0.0579 2.896047,-0.2455 2.772921,-1.97111 -0.123126,-1.72561 -3.77139,-8.05842 -5.445616,-11.35896 -1.674226,-3.30054 -5.150961,-5.41939 -5.612661,-8.68626 -0.4617,-3.26687 -2.83114,2.84077 -4.2095,0.93544 -1.37836,-1.90533 4.67944,-6.27404 5.011309,-8.41899 0.331869,-2.14495 2.727654,-0.8036 -0.734989,-3.14041 -3.46264,-2.33681 -18.0337,-1.62841 -21.58202,3.34087 z"
           id="path6103"
           inkscape:connector-curvature="0"
           sodipodi:nodetypes="zzzzzzzzzzzzzzzz" />
        <path
           style="opacity:1;fill:none;fill-opacity:1;stroke:#7e5e3b;stroke-width:5.87599993;stroke-linecap:butt;stroke-linejoin:round;stroke-miterlimit:4;stroke-dasharray:none;stroke-opacity:1"
           d="m -124.66116,105.93672 1.90806,6.47933"
           id="path6105"
           inkscape:connector-curvature="0"
           sodipodi:nodetypes="cc" />
        <path
           style="opacity:1;fill:#e5cf9f;fill-opacity:1;stroke:none;stroke-width:12.77599907;stroke-linecap:butt;stroke-linejoin:round;stroke-miterlimit:4;stroke-dasharray:none;stroke-opacity:1"
           d="m -130.77119,102.39343 c 0.2425,-2.33819 8.54185,-4.553849 15.368,-4.610391 6.82614,-0.05654 15.82379,1.825889 15.969356,4.409951 0.145566,2.58406 -9.181966,4.56311 -16.570716,4.67721 -7.38875,0.1141 -15.00914,-2.13857 -14.76664,-4.47677 z"
           id="path6107"
           inkscape:connector-curvature="0"
           sodipodi:nodetypes="zzzzz" />
        <path
           style="opacity:1;fill:none;fill-opacity:1;stroke:#e6ab4f;stroke-width:1.07599998;stroke-linecap:butt;stroke-linejoin:round;stroke-miterlimit:4;stroke-dasharray:none;stroke-opacity:1"
           d="m -128.9003,102.32662 c 3.23476,-2.397562 8.9936,-3.48675 13.69756,-3.474503 4.70396,0.01225 13.07518,1.329453 13.16302,3.407683 0.0879,2.07824 -10.088,3.14109 -13.56393,3.20724 -3.47593,0.0662 -9.54721,-1.35938 -9.55488,-2.53906 -0.008,-1.17968 6.11534,-2.41128 10.22306,-2.40543 4.10772,0.006 7.51514,0.61303 7.48354,1.60362 -0.0316,0.99058 -4.66718,1.71064 -7.41672,1.67043 -2.74954,-0.0402 -5.13214,-0.44866 -5.14494,-0.86862 -0.0128,-0.41996 4.34922,-0.735 5.54584,-0.735"
           id="path6109"
           inkscape:connector-curvature="0"
           sodipodi:nodetypes="czzzzzzzzc" />
        <path
           style="opacity:1;fill:none;fill-opacity:1;stroke:#7e5e3b;stroke-width:5.87599993;stroke-linecap:butt;stroke-linejoin:round;stroke-miterlimit:4;stroke-dasharray:none;stroke-opacity:1"
           d="m -116.27182,126.18042 c -0.26963,-1.26479 -1.77486,-8.0097 -2.07134,-9.95579"
           id="path6111"
           inkscape:connector-curvature="0"
           sodipodi:nodetypes="cc" />
        <path
           style="opacity:1;fill:none;fill-opacity:1;stroke:#7e5e3b;stroke-width:5.87599993;stroke-linecap:butt;stroke-linejoin:round;stroke-miterlimit:4;stroke-dasharray:none;stroke-opacity:1"
           d="m -102.64107,113.21785 1.46998,4.87767"
           id="path6113"
           inkscape:connector-curvature="0" />
        <path
           sodipodi:nodetypes="cc"
           style="opacity:1;fill:none;fill-opacity:1;stroke:#7e5e3b;stroke-width:5.87599993;stroke-linecap:butt;stroke-linejoin:round;stroke-miterlimit:4;stroke-dasharray:none;stroke-opacity:1"
           d="m -112.26277,122.17138 -1.1359,-4.20949"
           id="path6115"
           inkscape:connector-curvature="0" />
        <path
           style="opacity:1;fill:none;fill-opacity:1;stroke:#7e5e3b;stroke-width:5.87599993;stroke-linecap:butt;stroke-linejoin:round;stroke-miterlimit:4;stroke-dasharray:none;stroke-opacity:1"
           d="m -109.18918,135.33441 -1.33634,-3.40769"
           id="path6117"
           inkscape:connector-curvature="0"
           sodipodi:nodetypes="cc" />
        <path
           style="opacity:1;fill:none;fill-opacity:1;stroke:#7e5e3b;stroke-width:5.87599993;stroke-linecap:butt;stroke-linejoin:round;stroke-miterlimit:4;stroke-dasharray:none;stroke-opacity:1"
           d="m -106.65012,131.0581 -2.33861,-4.94449"
           id="path6119"
           inkscape:connector-curvature="0"
           sodipodi:nodetypes="cc" />
        <path
           style="opacity:1;fill:none;fill-opacity:1;stroke:#937d50;stroke-width:5.87599993;stroke-linecap:butt;stroke-linejoin:round;stroke-miterlimit:4;stroke-dasharray:none;stroke-opacity:1"
           d="m -126.28928,129.24208 -2.26786,8.50447"
           id="path6121"
           inkscape:connector-curvature="0" />
        <path
           style="opacity:1;fill:none;fill-opacity:1;stroke:#937d50;stroke-width:5.87599993;stroke-linecap:butt;stroke-linejoin:round;stroke-miterlimit:4;stroke-dasharray:none;stroke-opacity:1"
           d="m -124.21041,126.40726 -0.56697,4.91369"
           id="path6123"
           inkscape:connector-curvature="0" />
        <path
           style="opacity:1;fill:none;fill-opacity:1;stroke:#937d50;stroke-width:5.87599993;stroke-linecap:butt;stroke-linejoin:round;stroke-miterlimit:4;stroke-dasharray:none;stroke-opacity:1"
           d="m -111.92619,125.46232 1.03944,3.02381"
           id="path6125"
           inkscape:connector-curvature="0" />
        <path
           style="opacity:1;fill:none;fill-opacity:1;stroke:#937d50;stroke-width:5.87599993;stroke-linecap:butt;stroke-linejoin:round;stroke-miterlimit:4;stroke-dasharray:none;stroke-opacity:1"
           d="m -122.13155,119.79268 -0.94493,-4.44122"
           id="path6127"
           inkscape:connector-curvature="0" />
      </g>
    </clipPath>
  </defs>
  <sodipodi:namedview
     id="base"
     pagecolor="#ffffff"
     bordercolor="#666666"
     borderopacity="1.0"
     inkscape:pageopacity="0.0"
     inkscape:pageshadow="2"
     inkscape:zoom="5.6"
     inkscape:cx="170.81251"
     inkscape:cy="89.3543"
     inkscape:document-units="mm"
     inkscape:current-layer="g6013"
     showgrid="false"
     fit-margin-top="0"
     fit-margin-left="0"
     fit-margin-right="0"
     fit-margin-bottom="0"
     inkscape:window-width="1770"
     inkscape:window-height="1061"
     inkscape:window-x="150"
     inkscape:window-y="0"
     inkscape:window-maximized="1"
     inkscape:snap-nodes="false"
     inkscape:snap-others="false" />
  <metadata
     id="metadata3773">
    <rdf:RDF>
      <cc:Work
         rdf:about="">
        <dc:format>image/svg+xml</dc:format>
        <dc:type
           rdf:resource="http://purl.org/dc/dcmitype/StillImage" />
        <dc:title></dc:title>
      </cc:Work>
    </rdf:RDF>
  </metadata>
  <g
     inkscape:label="Layer 1"
     inkscape:groupmode="layer"
     id="layer1"
     transform="translate(124.10477,-86.377762)">
    <rect
       style="opacity:1;fill:none;fill-opacity:1;stroke:none;stroke-width:5.87599993;stroke-linecap:butt;stroke-linejoin:round;stroke-miterlimit:4;stroke-dasharray:none;stroke-opacity:1"
       id="rect6017"
       width="127.18899"
       height="47.81398"
       x="-124.10477"
       y="86.377762" />
    <path
       sodipodi:nodetypes="ssssassssassssazasas"
       inkscape:connector-curvature="0"
       id="path837"
       d="m -46.270416,90.78297 c 0.1682,1.41692 -0.21827,7.627971 0.28064,11.68156 0.12928,1.0504 1.78285,1.24536 1.77183,0.18709 -0.0305,-2.93171 -0.49358,-4.368069 -0.35813,-7.27994 0.0916,-1.969959 4.31379,-4.53925 7.069011,-4.32963 2.695339,0.20506 6.194938,3.02284 6.19501,5.23298 7.9e-5,2.73086 0.146338,4.18542 -0.17104,6.22161 -0.194461,1.24769 1.633929,1.86935 1.6462,0.60666 0.0306,-3.15328 0.106598,-5.21225 -0.0935,-8.338279 -0.116171,-1.814461 3.537331,-4.245541 5.96252,-4.174641 2.46729,0.0721 5.87891,2.80984 5.807541,4.594221 -0.129349,3.233939 -0.288121,5.332569 -0.12564,7.295979 0.0659,0.79591 2.154798,0.78162 2.194161,-0.016 0.15993,-3.24103 -0.260581,-5.97282 -0.622711,-9.92578 -0.259101,-2.828241 -4.83417,-3.617311 -7.672922,-3.704171 -2.230307,-0.0682 -4.841279,2.41732 -6.195009,2.53624 -1.35373,0.118921 -5.01758,-2.13181 -7.65687,-2.03642 -1.85903,0.0672 -4.62908,2.514301 -5.27562,1.81998 -0.38861,-0.41732 -0.0461,-0.91455 -0.39023,-1.08767 -0.73586,-0.37023 -2.5249,-0.62918 -2.3652,0.71621 z"
       style="color:#000000;clip-rule:nonzero;display:inline;overflow:visible;visibility:visible;opacity:1;isolation:auto;mix-blend-mode:normal;color-interpolation:sRGB;color-interpolation-filters:linearRGB;solid-color:#000000;solid-opacity:1;fill:#441279;fill-opacity:1;fill-rule:evenodd;stroke:none;stroke-width:1.05833328;stroke-linecap:butt;stroke-linejoin:miter;stroke-miterlimit:4;stroke-dasharray:none;stroke-dashoffset:0;stroke-opacity:1;color-rendering:auto;image-rendering:auto;shape-rendering:auto;text-rendering:auto;enable-background:accumulate" />
    <path
       sodipodi:nodetypes="aaaaasssss"
       inkscape:connector-curvature="0"
       id="path841"
       d="m -40.015296,94.92775 c -1.61827,0.21307 -3.57599,1.793021 -3.50103,3.42354 0.0835,1.81626 2.42669,3.644 4.23334,3.43958 1.883709,-0.21314 3.873249,-2.62303 3.50102,-4.48187 -0.317889,-1.587519 -2.62815,-2.592589 -4.23333,-2.38125 z m 0.23698,0.55852 c 1.35791,0.002 3.214329,0.75271 3.363009,2.102451 0.246732,2.239909 -1.825719,3.133639 -3.727369,3.362999 -1.02818,0.12401 -2.44622,-1.49521 -2.55055,-2.9149 -0.10004,-1.36125 1.3011,-2.552879 2.91491,-2.55055 z"
       style="color:#000000;clip-rule:nonzero;display:inline;overflow:visible;visibility:visible;opacity:1;isolation:auto;mix-blend-mode:normal;color-interpolation:sRGB;color-interpolation-filters:linearRGB;solid-color:#000000;solid-opacity:1;fill:#000000;fill-opacity:1;fill-rule:evenodd;stroke:none;stroke-width:1.05833328;stroke-linecap:butt;stroke-linejoin:miter;stroke-miterlimit:4;stroke-dasharray:none;stroke-dashoffset:0;stroke-opacity:1;color-rendering:auto;image-rendering:auto;shape-rendering:auto;text-rendering:auto;enable-background:accumulate" />
    <path
       sodipodi:nodetypes="aaaaa"
       inkscape:connector-curvature="0"
       id="path843"
       d="m -40.291066,96.138041 c -0.76226,0.0696 -1.51159,1.001129 -1.4685,1.76535 0.046,0.815799 0.95474,1.757899 1.76951,1.696349 0.8205,-0.062 1.59557,-1.13874 1.50509,-1.956589 -0.0862,-0.778931 -1.02567,-1.576401 -1.8061,-1.50511 z"
       style="color:#000000;clip-rule:nonzero;display:inline;overflow:visible;visibility:visible;opacity:1;isolation:auto;mix-blend-mode:normal;color-interpolation:sRGB;color-interpolation-filters:linearRGB;solid-color:#000000;solid-opacity:1;fill:#000000;fill-opacity:1;fill-rule:evenodd;stroke:none;stroke-width:1.30548656;stroke-linecap:butt;stroke-linejoin:miter;stroke-miterlimit:4;stroke-dasharray:none;stroke-dashoffset:0;stroke-opacity:1;color-rendering:auto;image-rendering:auto;shape-rendering:auto;text-rendering:auto;enable-background:accumulate" />
    <path
       sodipodi:nodetypes="aaaaaaaaaa"
       inkscape:connector-curvature="0"
       id="path845"
       d="m -25.087735,94.383481 c -1.72462,-0.0196 -3.91826,1.642619 -3.928541,3.367329 -0.01011,1.70133 2.134211,3.38978 3.835431,3.36768 1.698818,-0.0221 3.754269,-1.76237 3.74137,-3.461289 -0.01241,-1.633871 -2.01445,-3.25516 -3.64826,-3.27372 z m 0.126749,0.548619 c 1.305821,0.0708 2.820971,1.46808 2.77333,2.77495 -0.0512,1.40424 -1.784,2.7646 -3.18915,2.75679 -1.369599,-0.008 -3.110291,-1.35219 -3.07839,-2.72143 0.0348,-1.494309 2.0017,-2.89125 3.49421,-2.81031 z"
       style="color:#000000;clip-rule:nonzero;display:inline;overflow:visible;visibility:visible;opacity:1;isolation:auto;mix-blend-mode:normal;color-interpolation:sRGB;color-interpolation-filters:linearRGB;solid-color:#000000;solid-opacity:1;fill:#000000;fill-opacity:1;fill-rule:evenodd;stroke:none;stroke-width:1.05833328;stroke-linecap:butt;stroke-linejoin:miter;stroke-miterlimit:4;stroke-dasharray:none;stroke-dashoffset:0;stroke-opacity:1;color-rendering:auto;image-rendering:auto;shape-rendering:auto;text-rendering:auto;enable-background:accumulate" />
    <path
       sodipodi:nodetypes="caaac"
       inkscape:connector-curvature="0"
       id="path847"
       d="m -25.487335,95.700731 c -0.81701,-0.0927 -1.93692,0.708959 -2.05286,1.560699 -0.107741,0.791091 0.657918,1.80514 1.44985,1.90652 0.887418,0.1136 2.01667,-0.7685 2.110471,-1.65824 0.0823,-0.7806 -0.69047,-1.716269 -1.507461,-1.808979 z"
       style="color:#000000;clip-rule:nonzero;display:inline;overflow:visible;visibility:visible;opacity:1;isolation:auto;mix-blend-mode:normal;color-interpolation:sRGB;color-interpolation-filters:linearRGB;solid-color:#000000;solid-opacity:1;fill:#000000;fill-opacity:1;fill-rule:evenodd;stroke:none;stroke-width:1.34779859;stroke-linecap:butt;stroke-linejoin:miter;stroke-miterlimit:4;stroke-dasharray:none;stroke-dashoffset:0;stroke-opacity:1;color-rendering:auto;image-rendering:auto;shape-rendering:auto;text-rendering:auto;enable-background:accumulate" />
    <path
       style="color:#000000;clip-rule:nonzero;display:inline;overflow:visible;visibility:visible;opacity:1;isolation:auto;mix-blend-mode:normal;color-interpolation:sRGB;color-interpolation-filters:linearRGB;solid-color:#000000;solid-opacity:1;fill:#000000;fill-opacity:1;fill-rule:evenodd;stroke:none;stroke-width:1.05833328;stroke-linecap:butt;stroke-linejoin:miter;stroke-miterlimit:4;stroke-dasharray:none;stroke-dashoffset:0;stroke-opacity:1;color-rendering:auto;image-rendering:auto;shape-rendering:auto;text-rendering:auto;enable-background:accumulate"
       d="m -60.353586,116.74022 c -0.80675,0.0132 -1.88455,0.87737 -1.8712,1.68413 0.0133,0.80676 0.97103,1.50989 1.77767,1.49655 0.80664,-0.0133 1.8839,-0.87699 1.87069,-1.68362 -0.0132,-0.80663 -0.9704,-1.51028 -1.77716,-1.49706 z m 0.0935,0.46767 c 0.52975,0.0221 1.07303,0.68729 1.02888,1.21646 -0.0442,0.52917 -0.70883,1.07299 -1.21595,1.02888 -0.50712,-0.0441 -1.333,-0.52115 -1.31004,-1.02887 0.023,-0.50772 0.96735,-1.23856 1.49711,-1.21647 z"
       id="path857"
       inkscape:connector-curvature="0"
       sodipodi:nodetypes="zzzzzzzzzz" />
    <path
       style="color:#000000;clip-rule:nonzero;display:inline;overflow:visible;visibility:visible;opacity:1;isolation:auto;mix-blend-mode:normal;color-interpolation:sRGB;color-interpolation-filters:linearRGB;solid-color:#000000;solid-opacity:1;fill:#000000;fill-opacity:1;fill-rule:evenodd;stroke:none;stroke-width:1.05833328;stroke-linecap:butt;stroke-linejoin:miter;stroke-miterlimit:4;stroke-dasharray:none;stroke-dashoffset:0;stroke-opacity:1;color-rendering:auto;image-rendering:auto;shape-rendering:auto;text-rendering:auto;enable-background:accumulate"
       d="m -54.179856,116.92726 c -0.67474,0.0619 -1.65603,0.83806 -1.59008,1.5906 0.066,0.75255 1.13206,1.45295 1.87069,1.30949 0.73862,-0.14347 1.34729,-1.20901 1.21594,-1.87069 -0.13134,-0.66168 -0.8218,-1.09132 -1.49655,-1.0294 z m -0.18706,0.4677 c 0.51827,-0.12232 1.19834,0.0541 1.30947,0.5617 0.11114,0.50759 -0.53177,1.3731 -1.02888,1.49657 -0.49711,0.12347 -1.08111,-0.33432 -1.21594,-0.84183 -0.13482,-0.50751 0.41707,-1.09413 0.93535,-1.21644 z"
       id="path865"
       inkscape:connector-curvature="0"
       sodipodi:nodetypes="zzzzzzzzzz" />
    <path
       style="color:#000000;clip-rule:nonzero;display:inline;overflow:visible;visibility:visible;opacity:1;isolation:auto;mix-blend-mode:normal;color-interpolation:sRGB;color-interpolation-filters:linearRGB;solid-color:#000000;solid-opacity:1;fill:#000000;fill-opacity:1;fill-rule:evenodd;stroke:none;stroke-width:1.05833328;stroke-linecap:butt;stroke-linejoin:miter;stroke-miterlimit:4;stroke-dasharray:none;stroke-dashoffset:0;stroke-opacity:1;color-rendering:auto;image-rendering:auto;shape-rendering:auto;text-rendering:auto;enable-background:accumulate"
       d="m -60.260226,117.30165 c -0.42119,0.038 -0.93433,0.81969 -0.8419,1.21608 0.0924,0.39639 0.48851,0.53733 0.8419,0.46772 0.35339,-0.0696 0.76915,-0.55997 0.74836,-0.93544 -0.0208,-0.37547 -0.32717,-0.78634 -0.74836,-0.74836 z"
       id="path870"
       inkscape:connector-curvature="0"
       sodipodi:nodetypes="zzzzz" />
    <path
       style="color:#000000;clip-rule:nonzero;display:inline;overflow:visible;visibility:visible;opacity:1;isolation:auto;mix-blend-mode:normal;color-interpolation:sRGB;color-interpolation-filters:linearRGB;solid-color:#000000;solid-opacity:1;fill:#000000;fill-opacity:1;fill-rule:evenodd;stroke:none;stroke-width:0.95761782;stroke-linecap:butt;stroke-linejoin:miter;stroke-miterlimit:4;stroke-dasharray:none;stroke-dashoffset:0;stroke-opacity:1;color-rendering:auto;image-rendering:auto;shape-rendering:auto;text-rendering:auto;enable-background:accumulate"
       d="m -53.827866,117.30152 c -0.42903,-0.0291 -1.09235,0.48119 -1.10035,0.93107 -0.008,0.44988 0.50202,0.85663 0.93107,0.84642 0.42904,-0.0102 0.92031,-0.52195 0.93106,-0.93106 0.0108,-0.4091 -0.33274,-0.81726 -0.76178,-0.84643 z"
       id="path872"
       inkscape:connector-curvature="0"
       sodipodi:nodetypes="zzzzz" />
    <path
       style="color:#000000;clip-rule:nonzero;display:inline;overflow:visible;visibility:visible;opacity:1;isolation:auto;mix-blend-mode:normal;color-interpolation:sRGB;color-interpolation-filters:linearRGB;solid-color:#000000;solid-opacity:1;fill:#de924f;fill-opacity:1;fill-rule:evenodd;stroke:none;stroke-width:1.05833328;stroke-linecap:butt;stroke-linejoin:miter;stroke-miterlimit:4;stroke-dasharray:none;stroke-dashoffset:0;stroke-opacity:1;color-rendering:auto;image-rendering:auto;shape-rendering:auto;text-rendering:auto;enable-background:accumulate"
       d="m -61.135176,123.24172 0.50881,-3e-5 c 0,0.0426 0.57558,2.97036 1.20808,3.42239 0.6325,0.45203 1.63026,0.9588 1.63026,0.9588 l 0.48819,0.57665 -2.29184,-0.84189 0.27446,0.71553 0.006,0.68763 -0.79512,-1.3564 -1.63703,1.21608 0.29693,-0.57787 1.01269,-1.29301 z"
       id="path958"
       inkscape:connector-curvature="0"
       sodipodi:nodetypes="cczcccccccccc" />
    <path
       style="color:#000000;clip-rule:nonzero;display:inline;overflow:visible;visibility:visible;opacity:1;isolation:auto;mix-blend-mode:normal;color-interpolation:sRGB;color-interpolation-filters:linearRGB;solid-color:#000000;solid-opacity:1;fill:#de924f;fill-opacity:1;fill-rule:evenodd;stroke:none;stroke-width:1.05833328;stroke-linecap:butt;stroke-linejoin:miter;stroke-miterlimit:4;stroke-dasharray:none;stroke-dashoffset:0;stroke-opacity:1;color-rendering:auto;image-rendering:auto;shape-rendering:auto;text-rendering:auto;enable-background:accumulate"
       d="m -57.547426,123.10141 1.30962,3.97563 -0.51449,1.35639 0.93547,-0.98221 2.43215,1.21607 -0.51449,-0.56127 -1.02899,-0.65481 1.87089,0.14032 -0.5145,-0.42094 c 0,0 -0.95058,-0.10249 -1.69985,-0.53955 -0.74927,-0.43706 -1.8192,-3.4539 -1.76129,-3.48286 z"
       id="path960"
       inkscape:connector-curvature="0"
       sodipodi:nodetypes="ccccccccczcc" />
    <path
       style="color:#000000;clip-rule:nonzero;display:inline;overflow:visible;visibility:visible;opacity:1;isolation:auto;mix-blend-mode:normal;color-interpolation:sRGB;color-interpolation-filters:linearRGB;solid-color:#000000;solid-opacity:1;fill:#782144;fill-opacity:1;fill-rule:evenodd;stroke:none;stroke-width:1.36999822;stroke-linecap:butt;stroke-linejoin:miter;stroke-miterlimit:4;stroke-dasharray:none;stroke-dashoffset:0;stroke-opacity:1;color-rendering:auto;image-rendering:auto;shape-rendering:auto;text-rendering:auto;enable-background:accumulate"
       d="m -64.006136,119.61154 c -0.11307,-1.44379 -0.0569,-0.86351 -0.0302,-2.86075 0.0205,-1.53156 2.46482,-1.8548 3.92291,-1.96145 0.95886,-0.0701 1.77937,0.86162 2.74,0.90079 1.23736,0.0504 2.42531,-1.2229 3.61209,-0.86911 1.17496,0.35027 2.54873,1.37671 2.52123,2.67812 -0.0394,1.86438 -0.0272,0.3217 0.12524,2.2678 0.0618,0.78958 -0.62522,1.10893 -0.65183,0.21252 -0.0465,-1.56466 -0.0238,-0.79594 -0.17344,-2.6184 -0.0615,-0.74925 -1.31037,-1.8228 -2.29699,-1.87273 -1.12663,-0.057 -2.84982,1.02911 -2.82544,1.86276 0.0319,1.08969 0.0814,1.03329 0.12074,2.41585 0.0241,0.84674 -0.97667,0.78972 -0.91911,-0.13644 0.0519,-0.83553 -0.0672,-1.38787 -0.0266,-2.12032 0.0945,-1.70449 -1.44831,-2.04506 -2.53229,-2.04031 -1.15715,0.005 -2.71612,1.22634 -2.68402,2.20164 0.0461,1.4011 0.34865,0.89073 0.18568,2.06376 -0.12769,0.91908 -0.89804,0.82573 -0.99441,0.34399 z"
       id="path817"
       inkscape:connector-curvature="0"
       sodipodi:nodetypes="csaaassssassssasssc" />
    <path
       sodipodi:nodetypes="czzscsccccccccczcc"
       inkscape:connector-curvature="0"
       id="path849"
       d="m -35.003236,111.03418 c -0.769319,0.41963 1.606391,3.35092 3.461141,3.36759 1.854751,0.0167 -3.68337,8.66165 -4.93514,8.64757 -1.251771,-0.0141 -6.626421,1.07237 -8.677751,2.82048 -0.89929,0.76636 0.14834,0.58771 -0.95732,1.01486 1.39253,-0.42863 -0.16882,0.0514 1.09989,-0.44399 2.45277,-0.95781 5.55011,-2.28225 8.25454,-2.26881 -1.98212,1.047 -4.02444,2.06389 -5.03889,3.59473 l -0.38668,0.98895 1.12803,-0.74121 c 1.48605,-1.64148 3.33549,-2.55618 5.0459,-3.74892 l -0.395509,2.79632 0.43426,2.14823 0.32684,-2.25067 0.38277,-3.53578 c 0,0 6.957568,-8.89653 4.935138,-9.58302 -2.02243,-0.6865 -3.778488,-2.27127 -4.209489,-2.99342 z"
       style="color:#000000;clip-rule:nonzero;display:inline;overflow:visible;visibility:visible;opacity:1;isolation:auto;mix-blend-mode:normal;color-interpolation:sRGB;color-interpolation-filters:linearRGB;solid-color:#000000;solid-opacity:1;fill:#de924f;fill-opacity:1;fill-rule:evenodd;stroke:none;stroke-width:1.05833328;stroke-linecap:butt;stroke-linejoin:miter;stroke-miterlimit:4;stroke-dasharray:none;stroke-dashoffset:0;stroke-opacity:1;color-rendering:auto;image-rendering:auto;shape-rendering:auto;text-rendering:auto;enable-background:accumulate" />
    <path
       sodipodi:nodetypes="czzcccccccccccczcc"
       inkscape:connector-curvature="0"
       id="path851"
       d="m -23.029555,111.03417 c -0.918731,0.45936 2.25093,4.04891 3.648229,4.2095 1.397301,0.16059 -2.886451,9.27498 -4.303041,9.91569 -1.416589,0.64071 -3.922979,0.8623 -6.120849,2.73937 l -0.70789,1.56367 1.083791,-0.84305 c 1.551869,-1.48157 3.73425,-2.12247 6.025579,-2.61809 -1.93062,1.17779 -2.91564,1.53077 -3.351999,3.70473 l 0.10064,1.09148 0.51213,-0.90143 c 0.370319,-1.94645 1.734889,-2.14581 3.3005,-3.61414 l 0.27631,2.69705 0.93976,2.74732 -0.10527,-2.89879 -0.736621,-3.48103 c 0,0 5.70829,-10.24271 4.30303,-10.5705 -1.40526,-0.32779 -3.90692,-2.50428 -4.115948,-3.74178 z"
       style="color:#000000;clip-rule:nonzero;display:inline;overflow:visible;visibility:visible;opacity:1;isolation:auto;mix-blend-mode:normal;color-interpolation:sRGB;color-interpolation-filters:linearRGB;solid-color:#000000;solid-opacity:1;fill:#de924f;fill-opacity:1;fill-rule:evenodd;stroke:none;stroke-width:1.05833328;stroke-linecap:butt;stroke-linejoin:miter;stroke-miterlimit:4;stroke-dasharray:none;stroke-dashoffset:0;stroke-opacity:1;color-rendering:auto;image-rendering:auto;shape-rendering:auto;text-rendering:auto;enable-background:accumulate" />
    <g
       id="g6013"
       transform="translate(18.89881,-9.2604167)">
      <path
         sodipodi:nodetypes="zzzzzzzzzzzzzzzzz"
         inkscape:connector-curvature="0"
         id="path5948"
         d="m -97.864195,104.19751 c 0.06152,-7.084942 -9.817645,-7.302447 -16.303445,-7.416733 -6.4858,-0.114286 -18.8284,0.664519 -18.97613,8.218533 -0.14773,7.55402 -0.88472,18.7333 -1.87089,22.98518 -0.98616,4.25188 -4.80992,6.08048 -5.24336,7.16485 -0.43345,1.08438 0.63222,1.48696 1.53679,1.53681 0.90458,0.0498 7.26813,-1.67315 7.58591,0.79314 0.31778,2.46629 0.23799,5.13343 1.99027,5.02472 1.75228,-0.10871 7.60569,-2.36199 9.9155,-2.79208 2.30981,-0.4301 3.76644,-1.11158 6.66553,-0.50211 2.89909,0.60947 9.08962,1.95328 10.49033,2.33861 1.4007,0.38532 2.222065,-0.60102 1.87089,-2.13817 -0.35118,-1.53716 0.607175,-2.70589 1.804065,-4.20949 1.19689,-1.5036 4.99738,0.51814 6.41447,0.26727 1.4171,-0.25087 1.87723,-0.15762 1.87089,-1.87089 -0.006,-1.71327 -4.9216,-7.46355 -6.41447,-12.02713 -1.49287,-4.56358 -1.397866,-10.28757 -1.33635,-17.37251 z"
         style="opacity:1;fill:#7e5e3b;fill-opacity:1;stroke:none;stroke-width:12.77599907;stroke-linecap:butt;stroke-linejoin:round;stroke-miterlimit:4;stroke-dasharray:none;stroke-opacity:1" />
      <path
         sodipodi:nodetypes="zzzzzzzzzzzzzzzz"
         inkscape:connector-curvature="0"
         id="path5954"
         d="m -121.68403,106.26885 c -3.54832,4.96928 -0.40148,12.64066 2.60588,14.56619 3.00736,1.92553 3.02606,-3.93131 6.41447,-1.67044 3.38841,2.26087 0.73716,14.23737 2.47224,17.63979 1.73508,3.40242 1.33903,4.55637 2.73952,5.27857 1.40048,0.7222 4.07128,2.17779 4.81085,2.40543 0.73956,0.22763 4.497701,-1.68405 4.677213,-2.67269 0.179516,-0.9887 -2.028041,-4.97136 -0.400904,-6.14721 1.627138,-1.17585 4.922686,-0.15808 6.481287,-0.10022 1.558601,0.0579 2.896047,-0.2455 2.772921,-1.97111 -0.123126,-1.72561 -3.77139,-8.05842 -5.445616,-11.35896 -1.674226,-3.30054 -5.150961,-5.41939 -5.612661,-8.68626 -0.4617,-3.26687 -2.83114,2.84077 -4.2095,0.93544 -1.37836,-1.90533 4.67944,-6.27404 5.011309,-8.41899 0.331869,-2.14495 2.727654,-0.8036 -0.734989,-3.14041 -3.46264,-2.33681 -18.0337,-1.62841 -21.58202,3.34087 z"
         style="opacity:1;fill:#937d50;fill-opacity:1;stroke:none;stroke-width:1.07599998;stroke-linecap:butt;stroke-linejoin:round;stroke-miterlimit:4;stroke-dasharray:none;stroke-opacity:1"
         clip-path="url(#clipPath6063)" />
      <path
         sodipodi:nodetypes="cc"
         inkscape:connector-curvature="0"
         id="path5966"
         d="m -124.66116,105.93672 1.90806,6.47933"
         style="opacity:1;fill:none;fill-opacity:1;stroke:#7e5e3b;stroke-width:5.87599993;stroke-linecap:butt;stroke-linejoin:round;stroke-miterlimit:4;stroke-dasharray:none;stroke-opacity:1" />
      <path
         sodipodi:nodetypes="zzzzz"
         inkscape:connector-curvature="0"
         id="path5950"
         d="m -130.77119,102.39343 c 0.2425,-2.33819 8.54185,-4.553849 15.368,-4.610391 6.82614,-0.05654 15.82379,1.825889 15.969356,4.409951 0.145566,2.58406 -9.181966,4.56311 -16.570716,4.67721 -7.38875,0.1141 -15.00914,-2.13857 -14.76664,-4.47677 z"
         style="opacity:1;fill:#e5cf9f;fill-opacity:1;stroke:none;stroke-width:12.77599907;stroke-linecap:butt;stroke-linejoin:round;stroke-miterlimit:4;stroke-dasharray:none;stroke-opacity:1" />
      <path
         sodipodi:nodetypes="czzzzzzzzc"
         inkscape:connector-curvature="0"
         id="path5952"
         d="m -128.9003,102.32662 c 3.23476,-2.397562 8.9936,-3.48675 13.69756,-3.474503 4.70396,0.01225 13.07518,1.329453 13.16302,3.407683 0.0879,2.07824 -10.088,3.14109 -13.56393,3.20724 -3.47593,0.0662 -9.54721,-1.35938 -9.55488,-2.53906 -0.008,-1.17968 6.11534,-2.41128 10.22306,-2.40543 4.10772,0.006 7.51514,0.61303 7.48354,1.60362 -0.0316,0.99058 -4.66718,1.71064 -7.41672,1.67043 -2.74954,-0.0402 -5.13214,-0.44866 -5.14494,-0.86862 -0.0128,-0.41996 4.34922,-0.735 5.54584,-0.735"
         style="opacity:1;fill:none;fill-opacity:1;stroke:#e6ab4f;stroke-width:1.07599998;stroke-linecap:butt;stroke-linejoin:round;stroke-miterlimit:4;stroke-dasharray:none;stroke-opacity:1" />
      <path
         sodipodi:nodetypes="cc"
         inkscape:connector-curvature="0"
         id="path5956"
         d="m -116.27182,126.18042 c -0.26963,-1.26479 -1.77486,-8.0097 -2.07134,-9.95579"
         style="opacity:1;fill:none;fill-opacity:1;stroke:#7e5e3b;stroke-width:5.87599993;stroke-linecap:butt;stroke-linejoin:round;stroke-miterlimit:4;stroke-dasharray:none;stroke-opacity:1" />
      <path
         inkscape:connector-curvature="0"
         id="path5958"
         d="m -102.68832,112.98161 1.51723,5.11391"
         style="opacity:1;fill:none;fill-opacity:1;stroke:#7e5e3b;stroke-width:5.87599993;stroke-linecap:butt;stroke-linejoin:round;stroke-miterlimit:4;stroke-dasharray:none;stroke-opacity:1"
         sodipodi:nodetypes="cc" />
      <path
         inkscape:connector-curvature="0"
         id="path5960"
         d="m -112.26277,122.17138 -1.1359,-4.20949"
         style="opacity:1;fill:none;fill-opacity:1;stroke:#7e5e3b;stroke-width:5.87599993;stroke-linecap:butt;stroke-linejoin:round;stroke-miterlimit:4;stroke-dasharray:none;stroke-opacity:1"
         sodipodi:nodetypes="cc" />
      <path
         sodipodi:nodetypes="cc"
         inkscape:connector-curvature="0"
         id="path5962"
         d="m -109.18918,135.33441 -1.33634,-3.40769"
         style="opacity:1;fill:none;fill-opacity:1;stroke:#7e5e3b;stroke-width:5.87599993;stroke-linecap:butt;stroke-linejoin:round;stroke-miterlimit:4;stroke-dasharray:none;stroke-opacity:1" />
      <path
         sodipodi:nodetypes="cc"
         inkscape:connector-curvature="0"
         id="path5964"
         d="m -106.65012,131.0581 -2.33861,-4.94449"
         style="opacity:1;fill:none;fill-opacity:1;stroke:#7e5e3b;stroke-width:5.87599993;stroke-linecap:butt;stroke-linejoin:round;stroke-miterlimit:4;stroke-dasharray:none;stroke-opacity:1" />
      <path
         inkscape:connector-curvature="0"
         id="path5968"
         d="m -126.28928,129.24208 -2.26786,8.50447"
         style="opacity:1;fill:none;fill-opacity:1;stroke:#937d50;stroke-width:5.87599993;stroke-linecap:butt;stroke-linejoin:round;stroke-miterlimit:4;stroke-dasharray:none;stroke-opacity:1" />
      <path
         inkscape:connector-curvature="0"
         id="path5970"
         d="m -124.21041,126.40726 -0.56697,4.91369"
         style="opacity:1;fill:none;fill-opacity:1;stroke:#937d50;stroke-width:5.87599993;stroke-linecap:butt;stroke-linejoin:round;stroke-miterlimit:4;stroke-dasharray:none;stroke-opacity:1" />
      <path
         inkscape:connector-curvature="0"
         id="path5974"
         d="m -111.92619,125.46232 1.03944,3.02381"
         style="opacity:1;fill:none;fill-opacity:1;stroke:#937d50;stroke-width:5.87599993;stroke-linecap:butt;stroke-linejoin:round;stroke-miterlimit:4;stroke-dasharray:none;stroke-opacity:1" />
      <path
         inkscape:connector-curvature="0"
         id="path5978"
         d="m -122.13155,119.79268 -0.94493,-4.44122"
         style="opacity:1;fill:none;fill-opacity:1;stroke:#937d50;stroke-width:5.87599993;stroke-linecap:butt;stroke-linejoin:round;stroke-miterlimit:4;stroke-dasharray:none;stroke-opacity:1" />
    </g>
    <path
       style="opacity:1;fill:#937d50;fill-opacity:1;stroke:none;stroke-width:5.87599993;stroke-linecap:butt;stroke-linejoin:round;stroke-miterlimit:4;stroke-dasharray:none;stroke-opacity:1"
       d="m -92.73275,118.31675 -0.566965,5.10268 3.401785,-0.75595 z"
       id="path6015"
       inkscape:connector-curvature="0" />
    <path
       style="opacity:1;fill:#937d50;fill-opacity:1;stroke:none;stroke-width:5.87599993;stroke-linecap:butt;stroke-linejoin:round;stroke-miterlimit:4;stroke-dasharray:none;stroke-opacity:1"
       d="m -94.244652,118.88371 c 0.764925,2.74594 3.910073,0.80131 5.291667,0.37797 1.381594,-0.42334 1.715539,-2.60486 2.645833,-2.07887 0.930294,0.52599 -0.340948,1.94872 -0.377976,3.02381 -0.03703,1.07509 0.916525,2.26961 0.188989,3.40179 -0.727536,1.13218 -3.917736,0.4431 -4.346726,1.70089 -0.42899,1.25779 -0.750042,2.21497 1.700893,2.83482 2.450935,0.61985 10.205357,-6.04762 10.205357,-6.04762 l -5.669645,-10.01637 c 0,0 -10.403317,4.05764 -9.638392,6.80358 z"
       id="path6023"
       inkscape:connector-curvature="0"
       sodipodi:nodetypes="zzzzzzzccz" />
    <path
       style="opacity:1;fill:#937d50;fill-opacity:1;stroke:none;stroke-width:5.87599993;stroke-linecap:butt;stroke-linejoin:round;stroke-miterlimit:4;stroke-dasharray:none;stroke-opacity:1"
       d="m -86.874115,106.78847 c 1.722677,1.92873 3.56593,2.03882 5.791812,1.95473 l -4.657884,3.33693 z"
       id="path6025"
       inkscape:connector-curvature="0"
       sodipodi:nodetypes="cccc" />
    <path
       style="opacity:1;fill:#7e5e3b;fill-opacity:1;stroke:none;stroke-width:5.87599993;stroke-linecap:butt;stroke-linejoin:round;stroke-miterlimit:4;stroke-dasharray:none;stroke-opacity:1"
       d="m -80.150793,126.96728 c 0,0 -0.71028,-3.51598 0.458224,-4.30381 1.168504,-0.78783 3.010096,0.44733 3.96875,1.13392 0.958654,0.68659 1.678949,2.42246 1.678949,2.42246 -1.899099,-0.73512 -5.350935,-0.10802 -6.105923,0.74743 z"
       id="path6027"
       inkscape:connector-curvature="0"
       sodipodi:nodetypes="czzcc"
       clip-path="url(#clipPath6099)" />
    <path
       style="opacity:1;fill:#937d50;fill-opacity:1;stroke:none;stroke-width:5.87599993;stroke-linecap:butt;stroke-linejoin:round;stroke-miterlimit:4;stroke-dasharray:none;stroke-opacity:1"
       d="m -78.835994,121.83052 1.035669,2.70611 4.242904,-0.33409 z"
       id="path6029"
       inkscape:connector-curvature="0" />
  </g>
</svg>
