<?xml version="1.0" encoding="UTF-8" standalone="no"?>
<!-- Created with Inkscape (http://www.inkscape.org/) -->

<svg
   xmlns:dc="http://purl.org/dc/elements/1.1/"
   xmlns:cc="http://creativecommons.org/ns#"
   xmlns:rdf="http://www.w3.org/1999/02/22-rdf-syntax-ns#"
   xmlns:svg="http://www.w3.org/2000/svg"
   xmlns="http://www.w3.org/2000/svg"
   xmlns:sodipodi="http://sodipodi.sourceforge.net/DTD/sodipodi-0.dtd"
   xmlns:inkscape="http://www.inkscape.org/namespaces/inkscape"
   width="46.259644mm"
   height="17.268188mm"
   viewBox="0 0 46.259644 17.268188"
   version="1.1"
   id="svg4393"
   inkscape:version="0.92.2 5c3e80d, 2017-08-06"
   sodipodi:docname="smallart3.svg">
  <defs
     id="defs4387" />
  <sodipodi:namedview
     id="base"
     pagecolor="#ffffff"
     bordercolor="#666666"
     borderopacity="1.0"
     inkscape:pageopacity="0.0"
     inkscape:pageshadow="2"
     inkscape:zoom="2.8"
     inkscape:cx="45.594665"
     inkscape:cy="34.039127"
     inkscape:document-units="mm"
     inkscape:current-layer="layer1"
     showgrid="false"
     fit-margin-top="0"
     fit-margin-left="0"
     fit-margin-right="0"
     fit-margin-bottom="0"
     inkscape:window-width="1770"
     inkscape:window-height="1061"
     inkscape:window-x="150"
     inkscape:window-y="0"
     inkscape:window-maximized="1"
     inkscape:snap-nodes="false"
     inkscape:snap-others="false" />
  <metadata
     id="metadata4390">
    <rdf:RDF>
      <cc:Work
         rdf:about="">
        <dc:format>image/svg+xml</dc:format>
        <dc:type
           rdf:resource="http://purl.org/dc/dcmitype/StillImage" />
        <dc:title></dc:title>
      </cc:Work>
    </rdf:RDF>
  </metadata>
  <g
     inkscape:label="Layer 1"
     inkscape:groupmode="layer"
     id="layer1"
     transform="translate(132.04109,-100.90857)">
    <path
       style="color:#000000;clip-rule:nonzero;display:inline;overflow:visible;visibility:visible;opacity:1;isolation:auto;mix-blend-mode:normal;color-interpolation:sRGB;color-interpolation-filters:linearRGB;solid-color:#000000;solid-opacity:1;fill:#aa0000;fill-opacity:1;fill-rule:evenodd;stroke:none;stroke-width:1.36999822;stroke-linecap:butt;stroke-linejoin:miter;stroke-miterlimit:4;stroke-dasharray:none;stroke-dashoffset:0;stroke-opacity:1;color-rendering:auto;image-rendering:auto;shape-rendering:auto;text-rendering:auto;enable-background:accumulate"
       d="m -117.4742,105.73447 c -0.11307,-1.44379 -0.0569,-0.86351 -0.0302,-2.86075 0.0205,-1.53156 2.46482,-1.8548 3.92291,-1.96145 0.95886,-0.0701 1.77879,0.8802 2.74,0.90079 1.06745,0.0229 2.0204,-0.97412 3.08292,-0.86911 1.35268,0.13369 3.0779,1.37671 3.0504,2.67812 -0.0394,1.86438 0.006,0.48706 -0.0401,2.40009 -0.019,0.79177 -0.6443,1.10929 -0.65183,0.21252 -0.0134,-1.59773 0.14156,-0.92823 -0.008,-2.75069 -0.0615,-0.74925 -1.31204,-1.79672 -2.29699,-1.87273 -1.20296,-0.0928 -3.14748,0.99604 -3.1231,1.82969 0.0319,1.08969 0.0814,1.03329 0.12074,2.41585 0.0241,0.84674 -0.87745,0.85586 -0.81989,-0.0703 0.0519,-0.83553 -0.0672,-1.38787 -0.0266,-2.12032 0.0945,-1.70449 -1.29355,-2.04818 -2.33385,-2.07338 -1.20494,-0.0292 -2.84841,1.29249 -2.81631,2.26779 0.0461,1.4011 -0.0152,0.95687 -0.0128,2.03068 0.002,0.92791 -0.56732,0.79266 -0.66369,0.31092 z"
       id="path976"
       inkscape:connector-curvature="0"
       sodipodi:nodetypes="csaasssssassssasssc" />
    <path
       style="color:#000000;clip-rule:nonzero;display:inline;overflow:visible;visibility:visible;opacity:1;isolation:auto;mix-blend-mode:normal;color-interpolation:sRGB;color-interpolation-filters:linearRGB;solid-color:#000000;solid-opacity:1;fill:#000000;fill-opacity:1;fill-rule:evenodd;stroke:none;stroke-width:1.05833328;stroke-linecap:butt;stroke-linejoin:miter;stroke-miterlimit:4;stroke-dasharray:none;stroke-dashoffset:0;stroke-opacity:1;color-rendering:auto;image-rendering:auto;shape-rendering:auto;text-rendering:auto;enable-background:accumulate"
       d="m -108.2995,102.86315 c 0.80675,0.0132 1.9507,0.67893 1.93735,1.48569 -0.0133,0.80676 -1.03718,1.70833 -1.84382,1.69499 -0.80664,-0.0133 -1.68546,-0.48011 -1.67225,-1.28674 0.0132,-0.80663 0.77196,-1.90716 1.57872,-1.89394 z m -0.0935,0.46767 c -0.52975,0.0221 -1.13918,0.9188 -1.09503,1.44797 0.0442,0.52917 0.77498,0.84148 1.2821,0.79737 0.50712,-0.0441 1.39915,-0.71959 1.37619,-1.22731 -0.023,-0.50772 -1.0335,-1.04012 -1.56326,-1.01803 z"
       id="path978"
       inkscape:connector-curvature="0"
       sodipodi:nodetypes="zzzzzzzzzz" />
    <path
       style="color:#000000;clip-rule:nonzero;display:inline;overflow:visible;visibility:visible;opacity:1;isolation:auto;mix-blend-mode:normal;color-interpolation:sRGB;color-interpolation-filters:linearRGB;solid-color:#000000;solid-opacity:1;fill:#000000;fill-opacity:1;fill-rule:evenodd;stroke:none;stroke-width:1.05833328;stroke-linecap:butt;stroke-linejoin:miter;stroke-miterlimit:4;stroke-dasharray:none;stroke-dashoffset:0;stroke-opacity:1;color-rendering:auto;image-rendering:auto;shape-rendering:auto;text-rendering:auto;enable-background:accumulate"
       d="m -114.47323,103.05019 c 0.67474,0.0619 1.58988,0.47426 1.52393,1.2268 -0.066,0.75255 -1.06591,1.81675 -1.80454,1.67329 -0.73862,-0.14347 -1.41344,-0.77906 -1.28209,-1.44074 0.13134,-0.66168 0.88795,-1.52127 1.5627,-1.45935 z m 0.18706,0.4677 c -0.51827,-0.12232 -1.26449,0.48405 -1.37562,0.99165 -0.11114,0.50759 0.59792,0.94315 1.09503,1.06662 0.49711,0.12347 1.01496,-0.69812 1.14979,-1.20563 0.13482,-0.50751 -0.35092,-0.73033 -0.8692,-0.85264 z"
       id="path980"
       inkscape:connector-curvature="0"
       sodipodi:nodetypes="zzzzzzzzzz" />
    <path
       style="color:#000000;clip-rule:nonzero;display:inline;overflow:visible;visibility:visible;opacity:1;isolation:auto;mix-blend-mode:normal;color-interpolation:sRGB;color-interpolation-filters:linearRGB;solid-color:#000000;solid-opacity:1;fill:#000000;fill-opacity:1;fill-rule:evenodd;stroke:none;stroke-width:1.05833328;stroke-linecap:butt;stroke-linejoin:miter;stroke-miterlimit:4;stroke-dasharray:none;stroke-dashoffset:0;stroke-opacity:1;color-rendering:auto;image-rendering:auto;shape-rendering:auto;text-rendering:auto;enable-background:accumulate"
       d="m -108.39286,103.42458 c 0.42119,0.038 0.9674,0.58818 0.87497,0.98457 -0.0924,0.39639 -0.52158,0.76884 -0.87497,0.69923 -0.35339,-0.0696 -0.86837,-0.36153 -0.84758,-0.737 0.0208,-0.37547 0.42639,-0.98478 0.84758,-0.9468 z"
       id="path982"
       inkscape:connector-curvature="0"
       sodipodi:nodetypes="zzzzz" />
    <path
       style="color:#000000;clip-rule:nonzero;display:inline;overflow:visible;visibility:visible;opacity:1;isolation:auto;mix-blend-mode:normal;color-interpolation:sRGB;color-interpolation-filters:linearRGB;solid-color:#000000;solid-opacity:1;fill:#000000;fill-opacity:1;fill-rule:evenodd;stroke:none;stroke-width:0.95761782;stroke-linecap:butt;stroke-linejoin:miter;stroke-miterlimit:4;stroke-dasharray:none;stroke-dashoffset:0;stroke-opacity:1;color-rendering:auto;image-rendering:auto;shape-rendering:auto;text-rendering:auto;enable-background:accumulate"
       d="m -114.65985,103.55674 c 0.42903,-0.0291 0.92698,0.3489 0.93498,0.79878 0.008,0.44988 -0.50202,0.85663 -0.93107,0.84642 -0.42904,-0.0102 -0.72187,-0.32351 -0.73262,-0.73262 -0.0108,-0.4091 0.29967,-0.88341 0.72871,-0.91258 z"
       id="path984"
       inkscape:connector-curvature="0"
       sodipodi:nodetypes="zzzzz" />
    <path
       style="color:#000000;clip-rule:nonzero;display:inline;overflow:visible;visibility:visible;opacity:1;isolation:auto;mix-blend-mode:normal;color-interpolation:sRGB;color-interpolation-filters:linearRGB;solid-color:#000000;solid-opacity:1;fill:#de924f;fill-opacity:1;fill-rule:evenodd;stroke:none;stroke-width:1.05833328;stroke-linecap:butt;stroke-linejoin:miter;stroke-miterlimit:4;stroke-dasharray:none;stroke-dashoffset:0;stroke-opacity:1;color-rendering:auto;image-rendering:auto;shape-rendering:auto;text-rendering:auto;enable-background:accumulate"
       d="m -108.24551,109.26543 -0.50881,-3e-5 c 0,0.0426 0.15202,3.06958 -0.48048,3.52161 -0.6325,0.45203 -1.56411,0.66114 -1.56411,0.66114 l -0.48819,0.57665 2.22569,-0.54423 -0.076,1.07933 0.22551,0.55534 0.36517,-1.58791 1.90161,0.8192 -0.29693,-0.57787 -1.27727,-0.89613 z"
       id="path986"
       inkscape:connector-curvature="0"
       sodipodi:nodetypes="cczcccccccccc" />
    <path
       style="color:#000000;clip-rule:nonzero;display:inline;overflow:visible;visibility:visible;opacity:1;isolation:auto;mix-blend-mode:normal;color-interpolation:sRGB;color-interpolation-filters:linearRGB;solid-color:#000000;solid-opacity:1;fill:#de924f;fill-opacity:1;fill-rule:evenodd;stroke:none;stroke-width:1.05833328;stroke-linecap:butt;stroke-linejoin:miter;stroke-miterlimit:4;stroke-dasharray:none;stroke-dashoffset:0;stroke-opacity:1;color-rendering:auto;image-rendering:auto;shape-rendering:auto;text-rendering:auto;enable-background:accumulate"
       d="m -111.92596,109.18385 0.29315,3.02599 0.87571,1.15656 -1.17426,-0.67896 -1.99115,1.85188 0.33557,-0.68346 0.80289,-0.91812 -1.75562,0.6616 0.37511,-0.54881 c 0,0 0.88322,-0.36609 1.47908,-0.99646 0.59584,-0.6304 0.30969,-2.93349 0.24596,-2.94497 z"
       id="path988"
       inkscape:connector-curvature="0"
       sodipodi:nodetypes="ccccccccczcc" />
    <path
       style="color:#000000;clip-rule:nonzero;display:inline;overflow:visible;visibility:visible;opacity:1;isolation:auto;mix-blend-mode:normal;color-interpolation:sRGB;color-interpolation-filters:linearRGB;solid-color:#000000;solid-opacity:1;fill:#db7240;fill-opacity:1;fill-rule:evenodd;stroke:none;stroke-width:1.05833328;stroke-linecap:butt;stroke-linejoin:miter;stroke-miterlimit:4;stroke-dasharray:none;stroke-dashoffset:0;stroke-opacity:1;color-rendering:auto;image-rendering:auto;shape-rendering:auto;text-rendering:auto;enable-background:accumulate"
       d="m -98.065678,112.47288 c 0.72609,-1.71695 4.0078,-1.4819 6.23661,-0.94494 2.2288,0.53696 6.04762,4.34672 6.04762,4.34672 0,0 -7.29194,1.59668 -9.44941,0.56696 -2.15746,-1.02972 -3.56091,-2.25179 -2.83482,-3.96874 z"
       id="path4975"
       inkscape:connector-curvature="0"
       sodipodi:nodetypes="zzczz" />
    <path
       style="color:#000000;clip-rule:nonzero;display:inline;overflow:visible;visibility:visible;opacity:1;isolation:auto;mix-blend-mode:normal;color-interpolation:sRGB;color-interpolation-filters:linearRGB;solid-color:#000000;solid-opacity:1;fill:#ebb297;fill-opacity:1;fill-rule:evenodd;stroke:none;stroke-width:1.05833328;stroke-linecap:butt;stroke-linejoin:miter;stroke-miterlimit:4;stroke-dasharray:none;stroke-dashoffset:0;stroke-opacity:1;color-rendering:auto;image-rendering:auto;shape-rendering:auto;text-rendering:auto;enable-background:accumulate"
       d="m -121.02774,107.74816 c -1.4964,0.10635 -2.44597,1.65309 -2.26786,3.2128 0.17811,1.55971 3.02381,3.59077 3.02381,3.59077 0,0 2.44471,-2.91019 2.26786,-4.34672 -0.17684,-1.43653 -1.52742,-2.5632 -3.02381,-2.45685 z"
       id="path4979"
       inkscape:connector-curvature="0"
       sodipodi:nodetypes="zzczz" />
    <path
       style="color:#000000;clip-rule:nonzero;display:inline;overflow:visible;visibility:visible;opacity:1;isolation:auto;mix-blend-mode:normal;color-interpolation:sRGB;color-interpolation-filters:linearRGB;solid-color:#000000;solid-opacity:1;fill:#d6db40;fill-opacity:1;fill-rule:evenodd;stroke:none;stroke-width:1.05833328;stroke-linecap:butt;stroke-linejoin:miter;stroke-miterlimit:4;stroke-dasharray:none;stroke-dashoffset:0;stroke-opacity:1;color-rendering:auto;image-rendering:auto;shape-rendering:auto;text-rendering:auto;enable-background:accumulate"
       d="m -124.85954,113.79232 c 0.94905,0.94411 0.59035,1.92488 -1.13393,3.30729 -1.72427,1.38241 -6.04762,1.03943 -6.04762,1.03943 0,0 1.54908,-2.66809 2.92931,-3.77976 1.38024,-1.11167 3.30319,-1.51107 4.25224,-0.56696 z"
       id="path5011"
       inkscape:connector-curvature="0"
       sodipodi:nodetypes="zzczz" />
    <path
       style="color:#000000;clip-rule:nonzero;display:inline;overflow:visible;visibility:visible;opacity:1;isolation:auto;mix-blend-mode:normal;color-interpolation:sRGB;color-interpolation-filters:linearRGB;solid-color:#000000;solid-opacity:1;fill:#db9e40;fill-opacity:1;fill-rule:evenodd;stroke:none;stroke-width:1.05833328;stroke-linecap:butt;stroke-linejoin:miter;stroke-miterlimit:4;stroke-dasharray:none;stroke-dashoffset:0;stroke-opacity:1;color-rendering:auto;image-rendering:auto;shape-rendering:auto;text-rendering:auto;enable-background:accumulate"
       d="m -101.66715,113.9813 c -0.78742,-0.21496 -1.08412,0.21573 -1.19821,0.64871 -0.11409,0.43298 0.0643,1.71365 0.0643,1.71365 0,0 1.33411,-0.54015 1.6064,-1.03944 0.27229,-0.49929 0.0315,-1.10796 -0.47247,-1.32292 -0.50394,-0.21496 -2e-5,0 -2e-5,0 z"
       id="path5013"
       inkscape:connector-curvature="0"
       sodipodi:nodetypes="czczzc" />
    <path
       style="color:#000000;clip-rule:nonzero;display:inline;overflow:visible;visibility:visible;opacity:1;isolation:auto;mix-blend-mode:normal;color-interpolation:sRGB;color-interpolation-filters:linearRGB;solid-color:#000000;solid-opacity:1;fill:none;fill-opacity:1;fill-rule:evenodd;stroke:#f3e1bd;stroke-width:0.35800001;stroke-linecap:butt;stroke-linejoin:miter;stroke-miterlimit:4;stroke-dasharray:none;stroke-dashoffset:0;stroke-opacity:1;color-rendering:auto;image-rendering:auto;shape-rendering:auto;text-rendering:auto;enable-background:accumulate"
       d="m -121.03843,108.21717 c 0.36765,1.81656 0.51718,3.13152 0.66146,4.72471"
       id="path5015"
       inkscape:connector-curvature="0"
       sodipodi:nodetypes="cc" />
    <path
       style="opacity:1;fill:none;fill-opacity:1;stroke:#f3e1bd;stroke-width:0.35799998;stroke-linecap:round;stroke-linejoin:round;stroke-miterlimit:4;stroke-dasharray:none;stroke-opacity:1"
       d="m -120.94394,108.59515 c 0.56697,0.013 0.94494,0.23957 1.51191,0.75595"
       id="path5019"
       inkscape:connector-curvature="0"
       sodipodi:nodetypes="cc" />
    <path
       style="opacity:1;fill:none;fill-opacity:1;stroke:#f3e1bd;stroke-width:0.35799998;stroke-linecap:round;stroke-linejoin:round;stroke-miterlimit:4;stroke-dasharray:none;stroke-opacity:1"
       d="m -120.75495,110.10705 1.41741,0.28348"
       id="path5021"
       inkscape:connector-curvature="0"
       sodipodi:nodetypes="cc" />
    <path
       style="opacity:1;fill:none;fill-opacity:1;stroke:#f3e1bd;stroke-width:0.35799998;stroke-linecap:round;stroke-linejoin:round;stroke-miterlimit:4;stroke-dasharray:none;stroke-opacity:1"
       d="m -121.03843,108.50065 c -0.92578,0.37797 -1.26145,0.85044 -1.41741,1.32292"
       id="path5023"
       inkscape:connector-curvature="0"
       sodipodi:nodetypes="cc" />
    <path
       style="opacity:1;fill:none;fill-opacity:1;stroke:#f3e1bd;stroke-width:0.35799998;stroke-linecap:round;stroke-linejoin:round;stroke-miterlimit:4;stroke-dasharray:none;stroke-opacity:1"
       d="m -120.84945,110.10705 -0.94493,0.56696"
       id="path5025"
       inkscape:connector-curvature="0"
       sodipodi:nodetypes="cc" />
    <path
       style="opacity:1;fill:none;fill-opacity:1;stroke:#eac98a;stroke-width:0.35799998;stroke-linecap:round;stroke-linejoin:round;stroke-miterlimit:4;stroke-dasharray:none;stroke-opacity:1"
       d="m -97.131436,113.13086 c 3.597632,-0.37891 6.053708,1.14478 8.976935,1.88988"
       id="path5027"
       inkscape:connector-curvature="0"
       sodipodi:nodetypes="cc" />
    <path
       style="opacity:1;fill:none;fill-opacity:1;stroke:#eac98a;stroke-width:0.35799998;stroke-linecap:round;stroke-linejoin:round;stroke-miterlimit:4;stroke-dasharray:none;stroke-opacity:1"
       d="m -96.942448,113.03637 c 0.346355,-0.63021 0.917556,-0.81073 1.511905,-0.94495"
       id="path5029"
       inkscape:connector-curvature="0"
       sodipodi:nodetypes="cc" />
    <path
       style="opacity:1;fill:none;fill-opacity:1;stroke:#eac98a;stroke-width:0.35799998;stroke-linecap:round;stroke-linejoin:round;stroke-miterlimit:4;stroke-dasharray:none;stroke-opacity:1"
       d="m -94.202121,113.03636 0.661459,-0.66145"
       id="path5031"
       inkscape:connector-curvature="0"
       sodipodi:nodetypes="cc" />
    <path
       style="opacity:1;fill:none;fill-opacity:1;stroke:#eac98a;stroke-width:0.35799998;stroke-linecap:round;stroke-linejoin:round;stroke-miterlimit:4;stroke-dasharray:none;stroke-opacity:1"
       d="m -92.123252,113.79232 0.755953,-0.85045"
       id="path5033"
       inkscape:connector-curvature="0"
       sodipodi:nodetypes="cc" />
    <path
       style="opacity:1;fill:none;fill-opacity:1;stroke:#eac98a;stroke-width:0.35799998;stroke-linecap:round;stroke-linejoin:round;stroke-miterlimit:4;stroke-dasharray:none;stroke-opacity:1"
       d="m -96.942448,113.31985 c 0.1246,0.41017 0.253276,0.81831 0.377977,1.22842"
       id="path5035"
       inkscape:connector-curvature="0"
       sodipodi:nodetypes="cc" />
    <path
       style="opacity:1;fill:none;fill-opacity:1;stroke:#eac98a;stroke-width:0.35799998;stroke-linecap:round;stroke-linejoin:round;stroke-miterlimit:4;stroke-dasharray:none;stroke-opacity:1"
       d="m -94.391109,113.31984 -0.0945,1.51192"
       id="path5037"
       inkscape:connector-curvature="0"
       sodipodi:nodetypes="cc" />
    <path
       style="opacity:1;fill:none;fill-opacity:1;stroke:#eac98a;stroke-width:0.35799998;stroke-linecap:round;stroke-linejoin:round;stroke-miterlimit:4;stroke-dasharray:none;stroke-opacity:1"
       d="m -92.406734,113.79231 0.09449,1.03945"
       id="path5039"
       inkscape:connector-curvature="0"
       sodipodi:nodetypes="cc" />
  </g>
</svg>
