<?xml version="1.0" encoding="UTF-8" standalone="no"?>
<!-- Created with Inkscape (http://www.inkscape.org/) -->

<svg
   xmlns:dc="http://purl.org/dc/elements/1.1/"
   xmlns:cc="http://creativecommons.org/ns#"
   xmlns:rdf="http://www.w3.org/1999/02/22-rdf-syntax-ns#"
   xmlns:svg="http://www.w3.org/2000/svg"
   xmlns="http://www.w3.org/2000/svg"
   xmlns:sodipodi="http://sodipodi.sourceforge.net/DTD/sodipodi-0.dtd"
   xmlns:inkscape="http://www.inkscape.org/namespaces/inkscape"
   width="41.507843mm"
   height="18.131439mm"
   viewBox="0 0 41.507844 18.131439"
   version="1.1"
   id="svg3152"
   inkscape:version="0.92.2 5c3e80d, 2017-08-06"
   sodipodi:docname="smallart1.svg">
  <defs
     id="defs3146" />
  <sodipodi:namedview
     id="base"
     pagecolor="#ffffff"
     bordercolor="#666666"
     borderopacity="1.0"
     inkscape:pageopacity="0.0"
     inkscape:pageshadow="2"
     inkscape:zoom="1.4"
     inkscape:cx="56.062691"
     inkscape:cy="12.137471"
     inkscape:document-units="mm"
     inkscape:current-layer="layer1"
     showgrid="false"
     fit-margin-top="0"
     fit-margin-left="0"
     fit-margin-right="0"
     fit-margin-bottom="0"
     inkscape:window-width="1770"
     inkscape:window-height="1061"
     inkscape:window-x="150"
     inkscape:window-y="0"
     inkscape:window-maximized="1"
     inkscape:snap-others="false"
     inkscape:snap-nodes="false" />
  <metadata
     id="metadata3149">
    <rdf:RDF>
      <cc:Work
         rdf:about="">
        <dc:format>image/svg+xml</dc:format>
        <dc:type
           rdf:resource="http://purl.org/dc/dcmitype/StillImage" />
        <dc:title></dc:title>
      </cc:Work>
    </rdf:RDF>
  </metadata>
  <g
     inkscape:label="Layer 1"
     inkscape:groupmode="layer"
     id="layer1"
     transform="translate(0.17113077,-106.50571)">
    <path
       style="color:#000000;clip-rule:nonzero;display:inline;overflow:visible;visibility:visible;opacity:0.477;isolation:auto;mix-blend-mode:normal;color-interpolation:sRGB;color-interpolation-filters:linearRGB;solid-color:#000000;solid-opacity:1;fill:none;fill-opacity:1;fill-rule:evenodd;stroke:#6b9d13;stroke-width:0.68003023;stroke-linecap:butt;stroke-linejoin:miter;stroke-miterlimit:4;stroke-dasharray:none;stroke-dashoffset:0;stroke-opacity:1;color-rendering:auto;image-rendering:auto;shape-rendering:auto;text-rendering:auto;enable-background:accumulate"
       d="m 4.5429535,121.02253 c 0,0 1.2723047,-2.50149 0.8500378,-3.27871 -0.4222669,-0.77723 -1.3117551,-0.78208 -1.8215094,-0.60717 -0.5097543,0.1749 -0.8292782,0.67764 -0.7286038,1.0929 0.1006745,0.41526 0.748644,0.75654 1.0929056,0.60717 0.3442616,-0.14937 0.2428679,-0.97147 0.2428679,-0.97147"
       id="path4983"
       inkscape:connector-curvature="0"
       sodipodi:nodetypes="czzzzc" />
    <path
       style="color:#000000;clip-rule:nonzero;display:inline;overflow:visible;visibility:visible;opacity:1;isolation:auto;mix-blend-mode:normal;color-interpolation:sRGB;color-interpolation-filters:linearRGB;solid-color:#000000;solid-opacity:1;fill:#000000;fill-opacity:1;fill-rule:evenodd;stroke:none;stroke-width:1.05833328;stroke-linecap:butt;stroke-linejoin:miter;stroke-miterlimit:4;stroke-dasharray:none;stroke-dashoffset:0;stroke-opacity:1;color-rendering:auto;image-rendering:auto;shape-rendering:auto;text-rendering:auto;enable-background:accumulate"
       d="m 29.138067,112.61657 c -0.80675,0.0132 -1.88455,0.87737 -1.8712,1.68413 0.0133,0.80676 0.97103,1.50989 1.77767,1.49655 0.80664,-0.0133 1.8839,-0.87699 1.87069,-1.68362 -0.0132,-0.80663 -0.9704,-1.51028 -1.77716,-1.49706 z m 0.0935,0.46767 c 0.52975,0.0221 1.07303,0.68729 1.02888,1.21646 -0.0442,0.52917 -0.70883,1.07299 -1.21595,1.02888 -0.50712,-0.0441 -1.333,-0.52115 -1.31004,-1.02887 0.023,-0.50772 0.96735,-1.23856 1.49711,-1.21647 z"
       id="path857"
       inkscape:connector-curvature="0"
       sodipodi:nodetypes="zzzzzzzzzz" />
    <path
       style="color:#000000;clip-rule:nonzero;display:inline;overflow:visible;visibility:visible;opacity:1;isolation:auto;mix-blend-mode:normal;color-interpolation:sRGB;color-interpolation-filters:linearRGB;solid-color:#000000;solid-opacity:1;fill:#000000;fill-opacity:1;fill-rule:evenodd;stroke:none;stroke-width:1.05833328;stroke-linecap:butt;stroke-linejoin:miter;stroke-miterlimit:4;stroke-dasharray:none;stroke-dashoffset:0;stroke-opacity:1;color-rendering:auto;image-rendering:auto;shape-rendering:auto;text-rendering:auto;enable-background:accumulate"
       d="m 35.311797,112.80361 c -0.67474,0.0619 -1.65603,0.83806 -1.59008,1.5906 0.066,0.75255 1.13206,1.45295 1.87069,1.30949 0.73862,-0.14347 1.34729,-1.20901 1.21594,-1.87069 -0.13134,-0.66168 -0.8218,-1.09132 -1.49655,-1.0294 z m -0.18706,0.4677 c 0.51827,-0.12232 1.19834,0.0541 1.30947,0.5617 0.11114,0.50759 -0.53177,1.3731 -1.02888,1.49657 -0.49711,0.12347 -1.08111,-0.33432 -1.21594,-0.84183 -0.13482,-0.50751 0.41707,-1.09413 0.93535,-1.21644 z"
       id="path865"
       inkscape:connector-curvature="0"
       sodipodi:nodetypes="zzzzzzzzzz" />
    <path
       style="color:#000000;clip-rule:nonzero;display:inline;overflow:visible;visibility:visible;opacity:1;isolation:auto;mix-blend-mode:normal;color-interpolation:sRGB;color-interpolation-filters:linearRGB;solid-color:#000000;solid-opacity:1;fill:#000000;fill-opacity:1;fill-rule:evenodd;stroke:none;stroke-width:1.05833328;stroke-linecap:butt;stroke-linejoin:miter;stroke-miterlimit:4;stroke-dasharray:none;stroke-dashoffset:0;stroke-opacity:1;color-rendering:auto;image-rendering:auto;shape-rendering:auto;text-rendering:auto;enable-background:accumulate"
       d="m 29.231427,113.178 c -0.42119,0.038 -0.93433,0.81969 -0.8419,1.21608 0.0924,0.39639 0.48851,0.53733 0.8419,0.46772 0.35339,-0.0696 0.76915,-0.55997 0.74836,-0.93544 -0.0208,-0.37547 -0.32717,-0.78634 -0.74836,-0.74836 z"
       id="path870"
       inkscape:connector-curvature="0"
       sodipodi:nodetypes="zzzzz" />
    <path
       style="color:#000000;clip-rule:nonzero;display:inline;overflow:visible;visibility:visible;opacity:1;isolation:auto;mix-blend-mode:normal;color-interpolation:sRGB;color-interpolation-filters:linearRGB;solid-color:#000000;solid-opacity:1;fill:#000000;fill-opacity:1;fill-rule:evenodd;stroke:none;stroke-width:0.95761782;stroke-linecap:butt;stroke-linejoin:miter;stroke-miterlimit:4;stroke-dasharray:none;stroke-dashoffset:0;stroke-opacity:1;color-rendering:auto;image-rendering:auto;shape-rendering:auto;text-rendering:auto;enable-background:accumulate"
       d="m 35.663787,113.17787 c -0.42903,-0.0291 -1.09235,0.48119 -1.10035,0.93107 -0.008,0.44988 0.50202,0.85663 0.93107,0.84642 0.42904,-0.0102 0.92031,-0.52195 0.93106,-0.93106 0.0108,-0.4091 -0.33274,-0.81726 -0.76178,-0.84643 z"
       id="path872"
       inkscape:connector-curvature="0"
       sodipodi:nodetypes="zzzzz" />
    <path
       style="color:#000000;clip-rule:nonzero;display:inline;overflow:visible;visibility:visible;opacity:1;isolation:auto;mix-blend-mode:normal;color-interpolation:sRGB;color-interpolation-filters:linearRGB;solid-color:#000000;solid-opacity:1;fill:#de924f;fill-opacity:1;fill-rule:evenodd;stroke:none;stroke-width:1.05833328;stroke-linecap:butt;stroke-linejoin:miter;stroke-miterlimit:4;stroke-dasharray:none;stroke-dashoffset:0;stroke-opacity:1;color-rendering:auto;image-rendering:auto;shape-rendering:auto;text-rendering:auto;enable-background:accumulate"
       d="m 28.356477,119.11807 0.50881,-3e-5 c 0,0.0426 0.57558,2.97036 1.20808,3.42239 0.6325,0.45203 1.63026,0.9588 1.63026,0.9588 l 0.48819,0.57665 -2.29184,-0.84189 0.27446,0.71553 0.006,0.68763 -0.79512,-1.3564 -1.63703,1.21608 0.29693,-0.57787 1.01269,-1.29301 z"
       id="path958"
       inkscape:connector-curvature="0"
       sodipodi:nodetypes="cczcccccccccc" />
    <path
       style="color:#000000;clip-rule:nonzero;display:inline;overflow:visible;visibility:visible;opacity:1;isolation:auto;mix-blend-mode:normal;color-interpolation:sRGB;color-interpolation-filters:linearRGB;solid-color:#000000;solid-opacity:1;fill:#de924f;fill-opacity:1;fill-rule:evenodd;stroke:none;stroke-width:1.05833328;stroke-linecap:butt;stroke-linejoin:miter;stroke-miterlimit:4;stroke-dasharray:none;stroke-dashoffset:0;stroke-opacity:1;color-rendering:auto;image-rendering:auto;shape-rendering:auto;text-rendering:auto;enable-background:accumulate"
       d="m 31.944227,118.97776 1.30962,3.97563 -0.51449,1.35639 0.93547,-0.98221 2.43215,1.21607 -0.51449,-0.56127 -1.02899,-0.65481 1.87089,0.14032 -0.5145,-0.42094 c 0,0 -0.95058,-0.10249 -1.69985,-0.53955 -0.74927,-0.43706 -1.8192,-3.4539 -1.76129,-3.48286 z"
       id="path960"
       inkscape:connector-curvature="0"
       sodipodi:nodetypes="ccccccccczcc" />
    <path
       sodipodi:nodetypes="cssaassssassssasssc"
       inkscape:connector-curvature="0"
       id="path962"
       d="m 14.596601,111.31147 c -0.11307,-1.44379 -0.03413,-0.86334 -0.0302,-2.86075 0.0033,-1.65233 1.697906,-1.76963 2.864576,-1.92837 1.14619,-0.15595 2.21163,0.8357 3.36838,0.83464 1.10465,-10e-4 2.14293,-1.06842 3.21521,-0.80296 1.2672,0.3137 2.94561,1.31056 2.91811,2.61197 -0.0394,1.86438 -0.0272,0.3217 0.12524,2.2678 0.0618,0.78958 -0.62522,1.10893 -0.65183,0.21252 -0.0465,-1.56466 -0.0238,-0.79594 -0.17344,-2.6184 -0.0615,-0.74925 -1.31037,-1.8228 -2.29699,-1.87273 -1.12663,-0.057 -2.84982,1.02911 -2.82544,1.86276 0.0319,1.08969 0.0814,1.03329 0.12074,2.41585 0.0241,0.84674 -0.97667,0.78972 -0.91911,-0.13644 0.0519,-0.83553 -0.0672,-1.38787 -0.0266,-2.12032 0.0945,-1.70449 -1.97178,-2.17896 -3.22681,-2.00724 -0.971918,0.13299 -2.021594,1.19327 -1.989494,2.16857 0.0461,1.4011 0.34865,0.89073 0.18568,2.06376 -0.12769,0.91908 -0.468097,0.8588 -0.564462,0.37706 z"
       style="color:#000000;clip-rule:nonzero;display:inline;overflow:visible;visibility:visible;opacity:1;isolation:auto;mix-blend-mode:normal;color-interpolation:sRGB;color-interpolation-filters:linearRGB;solid-color:#000000;solid-opacity:1;fill:#005522;fill-opacity:1;fill-rule:evenodd;stroke:none;stroke-width:1.36999822;stroke-linecap:butt;stroke-linejoin:miter;stroke-miterlimit:4;stroke-dasharray:none;stroke-dashoffset:0;stroke-opacity:1;color-rendering:auto;image-rendering:auto;shape-rendering:auto;text-rendering:auto;enable-background:accumulate" />
    <path
       sodipodi:nodetypes="zzzzzzzzzz"
       inkscape:connector-curvature="0"
       id="path964"
       d="m 17.819207,108.40708 c -0.80675,0.0132 -1.884554,0.87737 -1.871204,1.68413 0.0133,0.80676 0.971034,1.50989 1.777674,1.49655 0.80664,-0.0133 1.8839,-0.87699 1.87069,-1.68362 -0.0132,-0.80663 -0.9704,-1.51028 -1.77716,-1.49706 z m 0.0604,0.40152 c 0.52975,0.0221 1.30454,0.68729 1.26039,1.21646 -0.0442,0.52917 -0.90727,1.13914 -1.41439,1.09503 -0.50712,-0.0441 -1.333,-0.52115 -1.31004,-1.02887 0.023,-0.50772 0.93428,-1.30471 1.46404,-1.28262 z"
       style="color:#000000;clip-rule:nonzero;display:inline;overflow:visible;visibility:visible;opacity:1;isolation:auto;mix-blend-mode:normal;color-interpolation:sRGB;color-interpolation-filters:linearRGB;solid-color:#000000;solid-opacity:1;fill:#000000;fill-opacity:1;fill-rule:evenodd;stroke:none;stroke-width:1.05833328;stroke-linecap:butt;stroke-linejoin:miter;stroke-miterlimit:4;stroke-dasharray:none;stroke-dashoffset:0;stroke-opacity:1;color-rendering:auto;image-rendering:auto;shape-rendering:auto;text-rendering:auto;enable-background:accumulate" />
    <path
       sodipodi:nodetypes="zzzzzzzzzz"
       inkscape:connector-curvature="0"
       id="path966"
       d="m 23.992927,108.59412 c -0.67474,0.0619 -1.65603,0.83806 -1.59008,1.5906 0.066,0.75255 1.13206,1.45295 1.87069,1.30949 0.73862,-0.14347 1.47958,-1.01057 1.34823,-1.67225 -0.13134,-0.66168 -0.95409,-1.28976 -1.62884,-1.22784 z m -0.18706,0.4677 c 0.51827,-0.12232 1.33063,0.25254 1.44176,0.76014 0.11114,0.50759 -0.66406,1.17466 -1.16117,1.29813 -0.49711,0.12347 -1.08111,-0.33432 -1.21594,-0.84183 -0.13482,-0.50751 0.41707,-1.09413 0.93535,-1.21644 z"
       style="color:#000000;clip-rule:nonzero;display:inline;overflow:visible;visibility:visible;opacity:1;isolation:auto;mix-blend-mode:normal;color-interpolation:sRGB;color-interpolation-filters:linearRGB;solid-color:#000000;solid-opacity:1;fill:#000000;fill-opacity:1;fill-rule:evenodd;stroke:none;stroke-width:1.05833328;stroke-linecap:butt;stroke-linejoin:miter;stroke-miterlimit:4;stroke-dasharray:none;stroke-dashoffset:0;stroke-opacity:1;color-rendering:auto;image-rendering:auto;shape-rendering:auto;text-rendering:auto;enable-background:accumulate" />
    <path
       sodipodi:nodetypes="zzzzz"
       inkscape:connector-curvature="0"
       id="path968"
       d="m 17.912567,109.06773 c -0.42119,0.038 -0.93433,0.55511 -0.8419,0.9515 0.0924,0.39639 0.48851,0.80191 0.8419,0.7323 0.35339,-0.0696 0.76915,-0.55997 0.74836,-0.93544 -0.0208,-0.37547 -0.32717,-0.78634 -0.74836,-0.74836 z"
       style="color:#000000;clip-rule:nonzero;display:inline;overflow:visible;visibility:visible;opacity:1;isolation:auto;mix-blend-mode:normal;color-interpolation:sRGB;color-interpolation-filters:linearRGB;solid-color:#000000;solid-opacity:1;fill:#000000;fill-opacity:1;fill-rule:evenodd;stroke:none;stroke-width:1.05833328;stroke-linecap:butt;stroke-linejoin:miter;stroke-miterlimit:4;stroke-dasharray:none;stroke-dashoffset:0;stroke-opacity:1;color-rendering:auto;image-rendering:auto;shape-rendering:auto;text-rendering:auto;enable-background:accumulate" />
    <path
       sodipodi:nodetypes="zzzzz"
       inkscape:connector-curvature="0"
       id="path970"
       d="m 24.014187,109.26604 c -0.42903,-0.0291 -0.89391,0.28275 -0.90191,0.73263 -0.008,0.44988 0.36973,0.85663 0.79878,0.84642 0.42904,-0.0102 0.82109,-0.35659 0.83184,-0.7657 0.0108,-0.4091 -0.29967,-0.78418 -0.72871,-0.81335 z"
       style="color:#000000;clip-rule:nonzero;display:inline;overflow:visible;visibility:visible;opacity:1;isolation:auto;mix-blend-mode:normal;color-interpolation:sRGB;color-interpolation-filters:linearRGB;solid-color:#000000;solid-opacity:1;fill:#000000;fill-opacity:1;fill-rule:evenodd;stroke:none;stroke-width:0.95761782;stroke-linecap:butt;stroke-linejoin:miter;stroke-miterlimit:4;stroke-dasharray:none;stroke-dashoffset:0;stroke-opacity:1;color-rendering:auto;image-rendering:auto;shape-rendering:auto;text-rendering:auto;enable-background:accumulate" />
    <path
       sodipodi:nodetypes="cczcccccccccc"
       inkscape:connector-curvature="0"
       id="path972"
       d="m 17.335277,114.90858 0.50881,-3e-5 c 0,0.0426 0.27792,2.97036 0.91042,3.42239 0.6325,0.45203 1.43181,0.72729 1.43181,0.72729 l 0.48819,0.57665 -2.09339,-0.61038 0.043,0.55017 0.006,0.68763 -0.56361,-1.19104 -1.86854,0.91842 0.29693,-0.57787 1.2442,-0.99535 z"
       style="color:#000000;clip-rule:nonzero;display:inline;overflow:visible;visibility:visible;opacity:1;isolation:auto;mix-blend-mode:normal;color-interpolation:sRGB;color-interpolation-filters:linearRGB;solid-color:#000000;solid-opacity:1;fill:#de924f;fill-opacity:1;fill-rule:evenodd;stroke:none;stroke-width:1.05833328;stroke-linecap:butt;stroke-linejoin:miter;stroke-miterlimit:4;stroke-dasharray:none;stroke-dashoffset:0;stroke-opacity:1;color-rendering:auto;image-rendering:auto;shape-rendering:auto;text-rendering:auto;enable-background:accumulate" />
    <path
       sodipodi:nodetypes="ccccccccczcc"
       inkscape:connector-curvature="0"
       id="path974"
       d="m 21.286817,114.7352 0.64816,4.0087 -1.14288,0.95951 1.56386,-0.58533 1.40689,0.98456 -0.0184,-0.29669 -0.49982,-0.68788 1.63938,0.008 -0.5145,-0.42094 c 0,0 -1.31438,-0.10249 -1.6337,-0.37419 -0.319331,-0.27169 -1.124671,-3.58619 -1.066761,-3.61515 z"
       style="color:#000000;clip-rule:nonzero;display:inline;overflow:visible;visibility:visible;opacity:1;isolation:auto;mix-blend-mode:normal;color-interpolation:sRGB;color-interpolation-filters:linearRGB;solid-color:#000000;solid-opacity:1;fill:#de924f;fill-opacity:1;fill-rule:evenodd;stroke:none;stroke-width:1.05833328;stroke-linecap:butt;stroke-linejoin:miter;stroke-miterlimit:4;stroke-dasharray:none;stroke-dashoffset:0;stroke-opacity:1;color-rendering:auto;image-rendering:auto;shape-rendering:auto;text-rendering:auto;enable-background:accumulate" />
    <path
       style="color:#000000;clip-rule:nonzero;display:inline;overflow:visible;visibility:visible;opacity:1;isolation:auto;mix-blend-mode:normal;color-interpolation:sRGB;color-interpolation-filters:linearRGB;solid-color:#000000;solid-opacity:1;fill:#782144;fill-opacity:1;fill-rule:evenodd;stroke:none;stroke-width:1.36999822;stroke-linecap:butt;stroke-linejoin:miter;stroke-miterlimit:4;stroke-dasharray:none;stroke-dashoffset:0;stroke-opacity:1;color-rendering:auto;image-rendering:auto;shape-rendering:auto;text-rendering:auto;enable-background:accumulate"
       d="m 25.485517,115.48789 c -0.11307,-1.44379 -0.0569,-0.86351 -0.0302,-2.86075 0.0205,-1.53156 2.46482,-1.8548 3.92291,-1.96145 0.95886,-0.0701 1.77937,0.86162 2.74,0.90079 1.23736,0.0504 2.42531,-1.2229 3.61209,-0.86911 1.17496,0.35027 2.54873,1.37671 2.52123,2.67812 -0.0394,1.86438 -0.0272,0.3217 0.12524,2.2678 0.0618,0.78958 -0.62522,1.10893 -0.65183,0.21252 -0.0465,-1.56466 -0.0238,-0.79594 -0.17344,-2.6184 -0.0615,-0.74925 -1.31037,-1.8228 -2.29699,-1.87273 -1.12663,-0.057 -2.84982,1.02911 -2.82544,1.86276 0.0319,1.08969 0.0814,1.03329 0.12074,2.41585 0.0241,0.84674 -0.97667,0.78972 -0.91911,-0.13644 0.0519,-0.83553 -0.0672,-1.38787 -0.0266,-2.12032 0.0945,-1.70449 -1.44831,-2.04506 -2.53229,-2.04031 -1.15715,0.005 -2.71612,1.22634 -2.68402,2.20164 0.0461,1.4011 0.34865,0.89073 0.18568,2.06376 -0.12769,0.91908 -0.89804,0.82573 -0.99441,0.34399 z"
       id="path817"
       inkscape:connector-curvature="0"
       sodipodi:nodetypes="csaaassssassssasssc" />
    <path
       style="color:#000000;clip-rule:nonzero;display:inline;overflow:visible;visibility:visible;opacity:0.477;isolation:auto;mix-blend-mode:normal;color-interpolation:sRGB;color-interpolation-filters:linearRGB;solid-color:#000000;solid-opacity:1;fill:none;fill-opacity:1;fill-rule:evenodd;stroke:#0f740e;stroke-width:0.68003023;stroke-linecap:butt;stroke-linejoin:miter;stroke-miterlimit:4;stroke-dasharray:none;stroke-dashoffset:0;stroke-opacity:1;color-rendering:auto;image-rendering:auto;shape-rendering:auto;text-rendering:auto;enable-background:accumulate"
       d="m 10.371784,121.87257 c 0,0 1.382872,-3.5842 0.971472,-4.73592 -0.4114,-1.15173 -1.026647,-1.69145 -1.9429436,-1.57865 -0.9162964,0.1128 -1.9707237,1.59918 -1.8215096,2.42869 0.1492141,0.8295 1.1133539,1.22187 1.7000755,1.0929 0.5867217,-0.12897 0.9346827,-0.93478 0.8500377,-1.33577 -0.08465,-0.401 -0.4124707,-0.51704 -0.7286036,-0.48574 -0.3161329,0.0313 -0.7967215,0.48268 -0.7286038,0.72861 0.068118,0.24592 0.4857359,0.12142 0.4857359,0.12142"
       id="path4981"
       inkscape:connector-curvature="0"
       sodipodi:nodetypes="czzzzzzzc" />
    <path
       style="color:#000000;clip-rule:nonzero;display:inline;overflow:visible;visibility:visible;opacity:0.477;isolation:auto;mix-blend-mode:normal;color-interpolation:sRGB;color-interpolation-filters:linearRGB;solid-color:#000000;solid-opacity:1;fill:none;fill-opacity:1;fill-rule:evenodd;stroke:#6dbc17;stroke-width:0.67981601;stroke-linecap:round;stroke-linejoin:miter;stroke-miterlimit:4;stroke-dasharray:none;stroke-dashoffset:0;stroke-opacity:1;color-rendering:auto;image-rendering:auto;shape-rendering:auto;text-rendering:auto;enable-background:accumulate"
       d="m 7.5788028,121.75114 v -1.33578"
       id="path4985"
       inkscape:connector-curvature="0" />
    <path
       style="color:#000000;clip-rule:nonzero;display:inline;overflow:visible;visibility:visible;opacity:0.477;isolation:auto;mix-blend-mode:normal;color-interpolation:sRGB;color-interpolation-filters:linearRGB;solid-color:#000000;solid-opacity:1;fill:none;fill-opacity:1;fill-rule:evenodd;stroke:#6dbc17;stroke-width:0.67981601;stroke-linecap:round;stroke-linejoin:miter;stroke-miterlimit:4;stroke-dasharray:none;stroke-dashoffset:0;stroke-opacity:1;color-rendering:auto;image-rendering:auto;shape-rendering:auto;text-rendering:auto;enable-background:accumulate"
       d="M 6.0001611,121.994 5.6358592,120.77966"
       id="path4987"
       inkscape:connector-curvature="0" />
    <path
       style="color:#000000;clip-rule:nonzero;display:inline;overflow:visible;visibility:visible;opacity:0.477;isolation:auto;mix-blend-mode:normal;color-interpolation:sRGB;color-interpolation-filters:linearRGB;solid-color:#000000;solid-opacity:1;fill:none;fill-opacity:1;fill-rule:evenodd;stroke:#6dbc17;stroke-width:0.67981601;stroke-linecap:round;stroke-linejoin:miter;stroke-miterlimit:4;stroke-dasharray:none;stroke-dashoffset:0;stroke-opacity:1;color-rendering:auto;image-rendering:auto;shape-rendering:auto;text-rendering:auto;enable-background:accumulate"
       d="M 1.1428024,121.50827 0.17133064,119.92963"
       id="path4989"
       inkscape:connector-curvature="0" />
    <path
       style="color:#000000;clip-rule:nonzero;display:inline;overflow:visible;visibility:visible;opacity:0.412;isolation:auto;mix-blend-mode:normal;color-interpolation:sRGB;color-interpolation-filters:linearRGB;solid-color:#000000;solid-opacity:1;fill:none;fill-opacity:1;fill-rule:evenodd;stroke:#6dbc17;stroke-width:0.75923765;stroke-linecap:round;stroke-linejoin:miter;stroke-miterlimit:4;stroke-dasharray:none;stroke-dashoffset:0;stroke-opacity:1;color-rendering:auto;image-rendering:auto;shape-rendering:auto;text-rendering:auto;enable-background:accumulate"
       d="m 40.277255,122.3317 0.678104,-2.03431"
       id="path4991"
       inkscape:connector-curvature="0" />
  </g>
</svg>
