<?xml version="1.0" encoding="UTF-8" standalone="no"?>
<!-- Created with Inkscape (http://www.inkscape.org/) -->

<svg
   xmlns:dc="http://purl.org/dc/elements/1.1/"
   xmlns:cc="http://creativecommons.org/ns#"
   xmlns:rdf="http://www.w3.org/1999/02/22-rdf-syntax-ns#"
   xmlns:svg="http://www.w3.org/2000/svg"
   xmlns="http://www.w3.org/2000/svg"
   xmlns:sodipodi="http://sodipodi.sourceforge.net/DTD/sodipodi-0.dtd"
   xmlns:inkscape="http://www.inkscape.org/namespaces/inkscape"
   width="9.9202213cm"
   height="2.906534cm"
   viewBox="0 0 99.202211 29.065339"
   version="1.1"
   id="svg1502"
   inkscape:version="0.92.2 5c3e80d, 2017-08-06"
   sodipodi:docname="title.svg">
  <defs
     id="defs1496" />
  <sodipodi:namedview
     id="base"
     pagecolor="#ffffff"
     bordercolor="#666666"
     borderopacity="1.0"
     inkscape:pageopacity="0.0"
     inkscape:pageshadow="2"
     inkscape:zoom="0.35"
     inkscape:cx="506.04017"
     inkscape:cy="-522.21624"
     inkscape:document-units="mm"
     inkscape:current-layer="layer1"
     showgrid="false"
     units="cm"
     fit-margin-top="0"
     fit-margin-left="0"
     fit-margin-right="0"
     fit-margin-bottom="0"
     inkscape:window-width="1770"
     inkscape:window-height="1061"
     inkscape:window-x="150"
     inkscape:window-y="0"
     inkscape:window-maximized="1" />
  <metadata
     id="metadata1499">
    <rdf:RDF>
      <cc:Work
         rdf:about="">
        <dc:format>image/svg+xml</dc:format>
        <dc:type
           rdf:resource="http://purl.org/dc/dcmitype/StillImage" />
        <dc:title></dc:title>
      </cc:Work>
    </rdf:RDF>
  </metadata>
  <g
     inkscape:label="Layer 1"
     inkscape:groupmode="layer"
     id="layer1"
     transform="translate(499.39277,104.58029)">
    <g
       transform="translate(-619.87268,-260.59484)"
       id="g856">
      <path
         sodipodi:nodetypes="zzzzzzzzzzzzzzzzzzzzzzz"
         inkscape:connector-curvature="0"
         id="path4527"
         d="m 120.47991,171.79538 c 0,0.91319 0.54169,1.73938 1.41741,1.79539 0.87572,0.056 1.41741,-0.65946 1.41741,-1.98437 0,-1.32491 -0.62168,-6.48979 0.66146,-9.16592 1.28314,-2.67613 2.91281,-3.75056 5.48066,-3.68528 2.56785,0.0653 2.98148,0.50893 4.15774,3.11831 1.17626,2.60938 0.47247,9.09453 0.47247,10.20535 0,1.11082 0.69318,1.83177 1.51189,1.7009 0.81871,-0.13087 1.51191,-0.84324 1.51191,-2.07887 0,-1.23563 -0.45542,-7.10772 0.85045,-9.73289 1.30587,-2.62517 2.89087,-3.17342 5.19717,-3.21279 2.3063,-0.0394 3.77642,1.49147 4.72469,3.21279 0.94828,1.72132 0.66147,8.80055 0.66147,10.20536 0,1.40481 0.77153,1.64725 1.5119,1.5119 0.74037,-0.13535 0.89769,-0.0691 0.89769,-1.41741 v -10.58332 c 0,-1.22879 -2.91496,-5.63258 -7.79575,-5.66965 -4.88078,-0.0371 -5.73474,3.10362 -7.27604,3.02381 -1.5413,-0.0798 -2.47438,-2.90222 -6.61458,-2.83483 -4.1402,0.0674 -5.06151,2.43082 -5.66965,2.26787 -0.60814,-0.16295 -0.84568,-1.79243 -1.79538,-1.7009 -0.9497,0.0915 -1.32292,1.44574 -1.32292,2.64583 z"
         style="color:#000000;clip-rule:nonzero;display:inline;overflow:visible;visibility:visible;opacity:1;isolation:auto;mix-blend-mode:normal;color-interpolation:sRGB;color-interpolation-filters:linearRGB;solid-color:#000000;solid-opacity:1;fill:#441279;fill-opacity:1;fill-rule:evenodd;stroke:none;stroke-width:1.05833328;stroke-linecap:butt;stroke-linejoin:miter;stroke-miterlimit:4;stroke-dasharray:none;stroke-dashoffset:0;stroke-opacity:1;color-rendering:auto;image-rendering:auto;shape-rendering:auto;text-rendering:auto;enable-background:accumulate" />
      <path
         sodipodi:nodetypes="czzzzzzzzzzzzzzzzzzzzc"
         inkscape:connector-curvature="0"
         id="path4529"
         d="m 129.26786,179.82738 c 0,1.7069 -0.18899,3.75498 -0.18899,4.47902 0,0.72404 0.34959,0.69631 0.75595,0.75595 0.40636,0.0596 1.22842,-0.003 1.22842,-0.66146 0,-0.65871 -0.22525,-3.29226 0.28348,-4.29003 0.50873,-0.99777 0.84185,-1.23644 1.6064,-1.32292 0.76455,-0.0865 1.28684,0.25268 1.88988,1.22842 0.60304,0.97574 0.37798,3.51285 0.37798,4.25224 0,0.73939 0.48144,0.74384 0.85045,0.75595 0.36901,0.0121 0.85044,-0.0121 0.85044,-0.66146 0,-0.64936 -0.4827,-3.36301 0.18899,-4.44122 0.67169,-1.07821 1.32692,-1.66576 2.11667,-1.5119 0.78975,0.15386 1.34168,0.35868 1.66309,1.32291 0.32141,0.96423 -0.0945,3.57988 -0.0945,4.34673 0,0.76685 0.57947,0.80995 1.03943,0.75595 0.45996,-0.054 0.75595,0.0434 0.75595,-0.94494 0,-0.98833 -0.18898,-2.7423 -0.18898,-4.15774 0,-1.41543 -2.24,-2.85543 -3.45849,-2.83482 -1.21849,0.0206 -2.14895,1.88988 -3.0616,1.88988 -0.91265,0 -1.58494,-1.23792 -2.74033,-1.41741 -1.15539,-0.17949 -3.87425,0.74994 -3.87425,2.45685 z"
         style="color:#000000;clip-rule:nonzero;display:inline;overflow:visible;visibility:visible;opacity:1;isolation:auto;mix-blend-mode:normal;color-interpolation:sRGB;color-interpolation-filters:linearRGB;solid-color:#000000;solid-opacity:1;fill:#441279;fill-opacity:1;fill-rule:evenodd;stroke:none;stroke-width:1.05833328;stroke-linecap:butt;stroke-linejoin:miter;stroke-miterlimit:4;stroke-dasharray:none;stroke-dashoffset:0;stroke-opacity:1;color-rendering:auto;image-rendering:auto;shape-rendering:auto;text-rendering:auto;enable-background:accumulate" />
    </g>
    <g
       transform="translate(-609.81851,-214.55732)"
       id="g4644">
      <g
         aria-label="micro "
         style="font-style:normal;font-variant:normal;font-weight:200;font-stretch:normal;font-size:10.58333302px;line-height:77.99999714%;font-family:'DejaVu Sans';-inkscape-font-specification:'DejaVu Sans Ultra-Light';letter-spacing:0px;word-spacing:0px;fill:#000000;fill-opacity:1;stroke:none;stroke-width:0.26458332px;stroke-linecap:butt;stroke-linejoin:miter;stroke-opacity:1"
         id="text4601">
        <path
           inkscape:connector-curvature="0"
           d="m 172.05712,115.69901 q 0.42995,-1.11621 1.35599,-1.68672 0.87643,-0.55397 2.0836,-0.55397 1.20716,0 1.93476,0.85163 0.73587,0.84336 0.73587,3.04271 v 5.58932 h -0.75241 v -5.53971 q 0,-1.91823 -0.52916,-2.59623 -0.52917,-0.67799 -1.4056,-0.67799 -1.27331,0 -2.24896,0.78548 -1.0666,0.85163 -1.0666,2.79466 v 5.23379 h -0.76068 v -5.53971 q 0,-1.85209 -0.51263,-2.56316 -0.51263,-0.71106 -1.42213,-0.71106 -1.27331,0 -2.24896,0.79375 -1.0666,0.85162 -1.0666,2.78639 v 5.23379 h -0.76068 v -9.26042 h 0.76068 v 1.73633 q 0.40514,-0.9095 1.25677,-1.43867 0.85989,-0.5209 2.1084,-0.5209 0.81028,0 1.56269,0.5457 0.57878,0.42168 0.97565,1.69499 z"
           style="font-style:normal;font-variant:normal;font-weight:200;font-stretch:normal;font-size:16.93333244px;line-height:77.99999714%;font-family:'DejaVu Sans';-inkscape-font-specification:'DejaVu Sans Ultra-Light';stroke-width:0.26458332px"
           id="path4609" />
        <path
           d="m 181.87978,113.68156 h 0.76067 v 9.26042 h -0.76067 z m 0,-2.54662 h 0.76067 v 1.0418 h -0.76067 z"
           style="font-style:normal;font-variant:normal;font-weight:200;font-stretch:normal;font-size:16.93333244px;line-height:77.99999714%;font-family:'DejaVu Sans';-inkscape-font-specification:'DejaVu Sans Ultra-Light';stroke-width:0.26458332px"
           id="path4611"
           inkscape:connector-curvature="0"
           sodipodi:nodetypes="cccccccccc" />
        <path
           inkscape:connector-curvature="0"
           d="m 192.9344,114.12805 v 0.81028 q -0.68626,-0.42168 -1.13275,-0.5705 -0.76894,-0.23978 -1.47174,-0.23978 -2.00091,0 -2.86908,1.02526 -0.86816,1.02526 -0.86816,3.16673 0,2.15801 0.86816,3.18327 0.86817,1.02526 2.86908,1.02526 0.66146,0 1.30638,-0.1819 0.65319,-0.17364 1.29811,-0.52917 v 0.76894 q -0.63665,0.29766 -1.31465,0.44649 -0.68626,0.14883 -1.35599,0.14883 -2.03398,0 -3.23288,-1.09968 -1.19889,-1.10794 -1.19889,-3.76204 0,-2.6541 1.19889,-3.76205 1.1989,-1.09967 3.23288,-1.09967 0.66146,0 1.4056,0.19017 0.74414,0.1819 1.26504,0.47956 z"
           style="font-style:normal;font-variant:normal;font-weight:200;font-stretch:normal;font-size:16.93333244px;line-height:77.99999714%;font-family:'DejaVu Sans';-inkscape-font-specification:'DejaVu Sans Ultra-Light';stroke-width:0.26458332px"
           id="path4613" />
        <path
           inkscape:connector-curvature="0"
           d="m 200.94631,114.33475 q -0.1819,-0.091 -0.49609,-0.15709 -0.28112,-0.0496 -0.71107,-0.0496 -1.4056,0 -2.33164,1.04179 -0.7276,0.84336 -0.7276,2.89388 v 4.87826 h -0.74415 v -9.26042 h 0.74415 v 1.73633 q 0.37207,-0.74414 1.04179,-1.25677 0.92604,-0.7028 2.18281,-0.7028 0.32247,0 0.56224,0.0248 0.24805,0 0.47956,0.0579 z"
           style="font-style:normal;font-variant:normal;font-weight:200;font-stretch:normal;font-size:16.93333244px;line-height:77.99999714%;font-family:'DejaVu Sans';-inkscape-font-specification:'DejaVu Sans Ultra-Light';stroke-width:0.26458332px"
           id="path4615" />
        <path
           inkscape:connector-curvature="0"
           d="m 208.04045,115.26906 q -0.81855,-1.14101 -2.23242,-1.14101 -1.41386,0 -2.23242,1.13274 -0.82682,1.12448 -0.82682,3.04271 0,1.96784 0.81855,3.09232 0.81856,1.13275 2.24069,1.13275 1.41387,0 2.23242,-1.13275 0.82683,-1.14102 0.82683,-3.09232 0,-1.89342 -0.82683,-3.03444 z m -2.24069,-1.81074 q 1.76941,0 2.79467,1.32292 1.03352,1.33118 1.03352,3.53053 0,2.27376 -1.03352,3.58841 -1.02526,1.32292 -2.79467,1.32292 -1.78593,0 -2.81946,-1.31465 -1.02526,-1.31465 -1.02526,-3.59668 0,-2.22415 1.03353,-3.5388 1.03353,-1.31465 2.81119,-1.31465 z"
           style="font-style:normal;font-variant:normal;font-weight:200;font-stretch:normal;font-size:16.93333244px;line-height:77.99999714%;font-family:'DejaVu Sans';-inkscape-font-specification:'DejaVu Sans Ultra-Light';stroke-width:0.26458332px"
           id="path4617" />
      </g>
      <g
         id="g4630"
         style="font-style:normal;font-variant:normal;font-weight:200;font-stretch:normal;font-size:10.58333302px;line-height:77.99999714%;font-family:'DejaVu Sans';-inkscape-font-specification:'DejaVu Sans Ultra-Light';letter-spacing:0px;word-spacing:0px;fill:#000000;fill-opacity:1;stroke:none;stroke-width:0.26458332px;stroke-linecap:butt;stroke-linejoin:miter;stroke-opacity:1"
         aria-label="micro "
         transform="translate(0,13.758336)">
        <path
           id="path4620"
           style="font-style:normal;font-variant:normal;font-weight:200;font-stretch:normal;font-size:16.93333244px;line-height:77.99999714%;font-family:'DejaVu Sans';-inkscape-font-specification:'DejaVu Sans Ultra-Light';stroke-width:0.26458332px"
           d="m 172.05712,115.69901 q 0.42995,-1.11621 1.35599,-1.68672 0.87643,-0.55397 2.0836,-0.55397 1.20716,0 1.93476,0.85163 0.73587,0.84336 0.73587,3.04271 v 5.58932 h -0.75241 v -5.53971 q 0,-1.91823 -0.52916,-2.59623 -0.52917,-0.67799 -1.4056,-0.67799 -1.27331,0 -2.24896,0.78548 -1.0666,0.85163 -1.0666,2.79466 v 5.23379 h -0.76068 v -5.53971 q 0,-1.85209 -0.51263,-2.56316 -0.51263,-0.71106 -1.42213,-0.71106 -1.27331,0 -2.24896,0.79375 -1.0666,0.85162 -1.0666,2.78639 v 5.23379 h -0.76068 v -9.26042 h 0.76068 v 1.73633 q 0.40514,-0.9095 1.25677,-1.43867 0.85989,-0.5209 2.1084,-0.5209 0.81028,0 1.56269,0.5457 0.57878,0.42168 0.97565,1.69499 z"
           inkscape:connector-curvature="0" />
        <path
           sodipodi:nodetypes="cccccccccc"
           inkscape:connector-curvature="0"
           id="path4622"
           style="font-style:normal;font-variant:normal;font-weight:200;font-stretch:normal;font-size:16.93333244px;line-height:77.99999714%;font-family:'DejaVu Sans';-inkscape-font-specification:'DejaVu Sans Ultra-Light';stroke-width:0.26458332px"
           d="m 181.87978,113.68156 h 0.76067 v 9.26042 h -0.76067 z m 0,-2.54662 h 0.76067 v 1.0418 h -0.76067 z" />
        <path
           id="path4624"
           style="font-style:normal;font-variant:normal;font-weight:200;font-stretch:normal;font-size:16.93333244px;line-height:77.99999714%;font-family:'DejaVu Sans';-inkscape-font-specification:'DejaVu Sans Ultra-Light';stroke-width:0.26458332px"
           d="m 192.9344,114.12805 v 0.81028 q -0.68626,-0.42168 -1.13275,-0.5705 -0.76894,-0.23978 -1.47174,-0.23978 -2.00091,0 -2.86908,1.02526 -0.86816,1.02526 -0.86816,3.16673 0,2.15801 0.86816,3.18327 0.86817,1.02526 2.86908,1.02526 0.66146,0 1.30638,-0.1819 0.65319,-0.17364 1.29811,-0.52917 v 0.76894 q -0.63665,0.29766 -1.31465,0.44649 -0.68626,0.14883 -1.35599,0.14883 -2.03398,0 -3.23288,-1.09968 -1.19889,-1.10794 -1.19889,-3.76204 0,-2.6541 1.19889,-3.76205 1.1989,-1.09967 3.23288,-1.09967 0.66146,0 1.4056,0.19017 0.74414,0.1819 1.26504,0.47956 z"
           inkscape:connector-curvature="0" />
        <path
           id="path4626"
           style="font-style:normal;font-variant:normal;font-weight:200;font-stretch:normal;font-size:16.93333244px;line-height:77.99999714%;font-family:'DejaVu Sans';-inkscape-font-specification:'DejaVu Sans Ultra-Light';stroke-width:0.26458332px"
           d="m 200.94631,114.33475 q -0.1819,-0.091 -0.49609,-0.15709 -0.28112,-0.0496 -0.71107,-0.0496 -1.4056,0 -2.33164,1.04179 -0.7276,0.84336 -0.7276,2.89388 v 4.87826 h -0.74415 v -9.26042 h 0.74415 v 1.73633 q 0.37207,-0.74414 1.04179,-1.25677 0.92604,-0.7028 2.18281,-0.7028 0.32247,0 0.56224,0.0248 0.24805,0 0.47956,0.0579 z"
           inkscape:connector-curvature="0" />
        <path
           id="path4628"
           style="font-style:normal;font-variant:normal;font-weight:200;font-stretch:normal;font-size:16.93333244px;line-height:77.99999714%;font-family:'DejaVu Sans';-inkscape-font-specification:'DejaVu Sans Ultra-Light';stroke-width:0.26458332px"
           d="m 208.04045,115.26906 q -0.81855,-1.14101 -2.23242,-1.14101 -1.41386,0 -2.23242,1.13274 -0.82682,1.12448 -0.82682,3.04271 0,1.96784 0.81855,3.09232 0.81856,1.13275 2.24069,1.13275 1.41387,0 2.23242,-1.13275 0.82683,-1.14102 0.82683,-3.09232 0,-1.89342 -0.82683,-3.03444 z m -2.24069,-1.81074 q 1.76941,0 2.79467,1.32292 1.03352,1.33118 1.03352,3.53053 0,2.27376 -1.03352,3.58841 -1.02526,1.32292 -2.79467,1.32292 -1.78593,0 -2.81946,-1.31465 -1.02526,-1.31465 -1.02526,-3.59668 0,-2.22415 1.03353,-3.5388 1.03353,-1.31465 2.81119,-1.31465 z"
           inkscape:connector-curvature="0" />
      </g>
    </g>
  </g>
</svg>
